<?xml version="1.0" encoding="UTF-8" standalone="no"?>
<svg
   xmlns:dc="http://purl.org/dc/elements/1.1/"
   xmlns:cc="http://creativecommons.org/ns#"
   xmlns:rdf="http://www.w3.org/1999/02/22-rdf-syntax-ns#"
   xmlns:svg="http://www.w3.org/2000/svg"
   xmlns="http://www.w3.org/2000/svg"
   xmlns:sodipodi="http://sodipodi.sourceforge.net/DTD/sodipodi-0.dtd"
   xmlns:inkscape="http://www.inkscape.org/namespaces/inkscape"
   version="1.0"
   width="102.5"
   height="100.75"
   viewBox="0 0 82 80.6"
   preserveAspectRatio="xMidYMid meet"
   id="svg2"
   inkscape:version="0.48.5 r10040"
   sodipodi:docname="logo.svg">
  <defs
     id="defs12" />
  <sodipodi:namedview
     pagecolor="#ffffff"
     bordercolor="#666666"
     borderopacity="1"
     objecttolerance="10"
     gridtolerance="10"
     guidetolerance="10"
     inkscape:pageopacity="0"
     inkscape:pageshadow="2"
     inkscape:window-width="1024"
     inkscape:window-height="706"
     id="namedview10"
     showgrid="false"
     showguides="true"
     inkscape:guide-bbox="true"
     inkscape:zoom="2.63"
     inkscape:cx="102.76468"
     inkscape:cy="83.672316"
     inkscape:window-x="-8"
     inkscape:window-y="-8"
     inkscape:window-maximized="1"
     inkscape:current-layer="svg2" />
  <metadata
     id="metadata4">
Created by potrace 1.15, written by Peter Selinger 2001-2017
<rdf:RDF>
  <cc:Work
     rdf:about="">
    <dc:format>image/svg+xml</dc:format>
    <dc:type
       rdf:resource="http://purl.org/dc/dcmitype/StillImage" />
    <dc:title></dc:title>
  </cc:Work>
</rdf:RDF>
</metadata>
  <g
     transform="matrix(0.1,0,0,-0.1,-36.806083,133.52775)"
     id="g6"
     style="fill:#000000;stroke:none">
    <path
       d="m 539,1202 c -62,-32 -114,-94 -129,-155 -6,-23 -16,-51 -21,-63 -6,-12 -10,-30 -8,-40 1,-10 -1,-31 -6,-47 -5,-19 -2,-35 9,-52 9,-13 16,-44 16,-69 0,-60 16,-92 56,-111 29,-14 77,-15 339,-13 l 305,3 26,27 c 21,20 28,39 31,80 3,29 12,67 21,85 12,25 13,37 5,56 -7,14 -9,33 -7,44 3,10 -2,32 -10,48 -9,17 -16,37 -16,45 0,30 -59,117 -97,143 -60,42 -93,47 -284,47 -174,0 -178,0 -230,-28 z m 422,-2 c 79,-22 151,-98 165,-172 l 6,-38 -297,0 c -233,0 -296,-3 -292,-12 3,-10 57,-13 218,-15 118,-1 255,-2 304,-3 l 90,-1 -64,-21 c -56,-19 -68,-20 -105,-9 -70,22 -110,24 -150,7 -47,-20 -83,-20 -116,-1 -33,19 -82,19 -127,0 -45,-19 -76,-18 -138,5 -50,18 -44,24 23,20 23,-1 32,3 32,14 0,12 -10,16 -40,16 -35,0 -40,3 -40,23 1,67 85,166 158,185 49,13 328,14 373,2 z m -410,-435 82,-45 71,36 c 39,20 75,40 81,45 13,13 345,12 345,-1 0,-6 -50,-10 -130,-10 -109,0 -130,-2 -130,-15 0,-13 21,-15 130,-15 122,0 130,-1 130,-20 0,-10 -10,-28 -22,-40 -21,-19 -34,-20 -326,-20 -179,0 -311,4 -322,10 -20,11 -40,60 -35,87 2,10 4,21 4,26 2,17 47,4 122,-38 z"
       id="path8"
       inkscape:connector-curvature="0" />
  </g>
  <path
     style="color:#000000;fill:#f59e37;fill-opacity:1;stroke:none;stroke-width:0.2;marker:none;visibility:visible;display:inline;overflow:visible;enable-background:accumulate"
     d="m 7.2689161,52.702756 c -0.1266,0.004 -0.22704,0.02544 -0.325,0.05 -0.826926,0.207544 -1.0012,0.793128 -1,3.85 7.67e-4,1.98614 0.100602,2.68973 0.525,3.75 0.666588,1.66534 1.75455,3.32018 2.525,3.825 0.810379,0.53098 4.1285469,0.7848 12.7750009,1.025 9.438097,0.26219 45.23875,0.0932 47.75,-0.225 1.07556,-0.1363 2.3769,-0.41776 2.9,-0.65 1.694678,-0.75238 3.612198,-3.38429 3.624998,-4.975 0.0101,-1.25251 -0.60631,-1.40346 -6.574998,-1.6 -2.96162,-0.0975 -7.650312,-0.18792 -10.4,-0.2 -5.997984,-0.0263 -7.992992,-0.243 -8.675,-0.925 -0.382144,-0.38215 -0.44688,-0.58303 -0.25,-0.9 0.613352,-0.98746 1.219864,-1.05399 10.8,-1.25 8.66688,-0.177328 14.170338,-0.4822 14.724998,-0.825 1.03692,-0.640848 -8.935238,-1.093104 -20.549998,-0.925 -11.761784,0.170232 -12.460433,0.25848 -14.825,1.7 -0.984362,0.6001 -4.524798,2.48265 -7.85,4.175 l -6.025,3.075 -3.975,-2.2 c -8.168555,-4.54934 -13.2760029,-6.831688 -15.1750009,-6.775 z"
     id="path3040"
     inkscape:connector-curvature="0" />
  <path
     style="color:#000000;fill:#000000;fill-opacity:1;stroke:none;stroke-width:0.2;marker:none;visibility:visible;display:inline;overflow:visible;enable-background:accumulate"
     id="path3046"
     d="m 14.025329,34.152902 c 0.525343,0.01638 1.051128,0.01165 1.576661,0.01047 0.516013,-0.0034 1.032009,-8e-4 1.548017,3.57e-4 0.529908,-0.04034 1.044628,0.08794 1.566233,0.157495 0.4529,0.005 0.880052,0.105987 1.318523,0.202256 0.370871,0.09147 0.718884,0.23105 1.101314,0.28641 0.281153,0.0336 0.564418,0.03984 0.847162,0.0464 0,0 -2.779425,2.00472 -2.779425,2.00472 l 0,0 c -0.29487,-0.01344 -0.590591,-0.028 -0.881359,-0.08288 -0.376475,-0.08074 -0.731412,-0.227776 -1.110105,-0.29836 -0.426846,-0.09906 -0.857015,-0.139176 -1.292218,-0.187112 -0.508488,-0.07752 -1.014641,-0.157168 -1.531603,-0.12264 -0.516336,8e-4 -1.03266,0.004 -1.549001,3.6e-4 -0.535146,-0.0016 -1.070511,-0.0056 -1.605482,0.01048 0,0 2.791283,-2.027981 2.791283,-2.027981 z"
     inkscape:connector-curvature="0" />
  <path
     style="color:#000000;fill:#000000;fill-opacity:1;stroke:none;stroke-width:0.2;marker:none;visibility:visible;display:inline;overflow:visible;enable-background:accumulate"
     id="path3048"
     d="m 14.955455,35.315556 c 0.324396,0.04256 0.632449,-0.01944 0.948954,-0.07912 0,0 -2.735868,2.053752 -2.735868,2.053752 l 0,0 c -0.333974,0.04256 -0.667811,0.05056 -1.004369,0.05336 0,0 2.791283,-2.027992 2.791283,-2.027992 z"
     inkscape:connector-curvature="0" />
  <path
     style="color:#000000;fill:#000000;fill-opacity:1;stroke:none;stroke-width:0.2;marker:none;visibility:visible;display:inline;overflow:visible;enable-background:accumulate"
     id="path3050"
     d="m 14.415637,34.730028 c 1.645539,-0.456635 2.32044,-1.069567 -1.949326,1.36152 -0.05268,0.01232 0.120664,0.11516 0.08168,0.161008 -1.13e-4,1.36e-4 -0.395572,-0.04296 -0.519195,-0.0536 -0.213662,-0.01568 -0.427883,-0.01952 -0.64198,-0.02408 0,0 2.77811,-2.00561 2.77811,-2.00561 l 0,0 c 0.222695,0.0087 0.445712,0.01625 0.667131,0.04368 0.405986,0.06119 0.756276,0.1476 0.863226,0.599002 -1.006462,0.577768 -2.007302,1.16544 -3.019386,1.733304 -0.236164,0.132504 -0.722954,0.133176 -0.957665,0.342432 0,0 2.697403,-2.157664 2.697403,-2.157664 z"
     inkscape:connector-curvature="0" />
  <path
     style="color:#000000;fill:#000000;fill-opacity:1;stroke:none;stroke-width:0.2;marker:none;visibility:visible;display:inline;overflow:visible;enable-background:accumulate"
     id="path3052"
     d="m 12.609555,34.330494 c 0.506476,-0.02259 0.982337,-0.167588 1.471622,-0.280972 0.425582,-0.03803 0.81017,-0.213384 1.228687,-0.288125 0,0 -2.733824,2.078071 -2.733824,2.078071 l 0,0 c -0.403887,0.106296 -0.803633,0.21864 -1.216682,0.28652 -0.496184,0.121464 -0.99934,0.1874 -1.4999189,0.286744 0,0 2.7501159,-2.082238 2.7501159,-2.082238 z"
     inkscape:connector-curvature="0" />
  <path
     style="color:#000000;fill:#000000;fill-opacity:1;stroke:none;stroke-width:0.2;marker:none;visibility:visible;display:inline;overflow:visible;enable-background:accumulate"
     id="path3054"
     d="m 15.399934,35.028092 c 0.527533,-0.07856 1.058888,-0.121888 1.591244,-0.149064 0.496957,-0.02128 0.994464,-0.022 1.49178,-0.02264 0.466145,4.8e-5 0.932291,7.92e-4 1.398437,8e-4 0.436674,-0.0452 0.849141,0.09354 1.274644,0.162272 0.426489,0.05832 0.85766,0.06416 1.287363,0.07 0.305609,0.0024 0.152529,0.0016 0.459241,0.0024 0,0 -2.772262,2.01164 -2.772262,2.01164 l 0,0 c -0.308841,-0.0024 -0.154578,-8e-4 -0.46279,-0.0056 -0.442848,-0.01184 -0.887212,-0.02872 -1.324027,-0.108768 -0.409378,-0.07776 -0.813017,-0.155064 -1.233187,-0.118856 -0.465613,-4.88e-4 -0.931226,-0.0016 -1.39684,-8e-4 -0.491063,0.0016 -0.98242,0.004 -1.472818,0.03272 -0.533864,0.036 -1.068791,0.0857 -1.5909,0.208048 0,0 2.750115,-2.082232 2.750115,-2.082232 z"
     inkscape:connector-curvature="0" />
  <path
     style="color:#000000;fill:#ebaa48;fill-opacity:1;stroke:none;stroke-width:0.2;marker:none;visibility:visible;display:inline;overflow:visible;enable-background:accumulate"
     d="m 20.62134,34.493926 c -0.0331,-0.0331 -1.368343,-0.213196 -2.967222,-0.400227 -2.517696,-0.294511 -3.091629,-0.295981 -4.285151,-0.01098 -1.813231,0.432987 -5.0023919,0.440667 -6.0223489,0.0145 -0.995992,-0.416151 -1.230175,-1.395299 -0.827262,-3.458875 0.936129,-4.794523 5.5844059,-11.046818 10.7967679,-14.522494 3.390236,-2.260659 5.382947,-2.693673 14.268995,-3.100641 6.727432,-0.308107 20.77143,-0.159244 24.80831,0.262962 3.763304,0.393594 6.794776,1.628505 10.233248,4.168656 3.89343,2.876243 7.449978,7.715252 8.614378,11.720639 0.33741,1.160659 1.0684,5.083186 0.96496,5.178028 -0.067,0.0614 -55.523619,0.209486 -55.584675,0.148428 l 0,0 z"
     id="path3058"
     inkscape:connector-curvature="0" />
  <path
     style="color:#000000;fill:#4b9a65;fill-opacity:1;stroke:none;stroke-width:0.2;marker:none;visibility:visible;display:inline;overflow:visible;enable-background:accumulate"
     d="m 39.197067,41.24414 c -1.060956,-0.144488 -2.87864,-0.76356 -4.301835,-1.46512 -1.792753,-0.883728 -3.271461,-1.198304 -5.632829,-1.198304 -2.532324,0 -3.925995,0.284 -7.231656,1.473648 -3.004639,1.081312 -5.662219,1.37584 -8.095308,0.897152 -2.41464,-0.475048 -7.8710219,-2.465784 -8.1949329,-2.989888 -0.218598,-0.353696 1.139941,-0.467488 3.976306,-0.333048 2.1576239,0.102264 2.7979989,0.05152 3.7007119,-0.293224 0.93126,-0.355648 1.523379,-0.395032 4.031042,-0.26812 1.684451,0.08526 3.033165,0.05808 3.15897,-0.06368 0.132168,-0.127888 1.959438,-0.129808 4.591551,-0.0048 3.723755,0.176832 35.690262,0.638648 48.528918,0.701088 l 4.0693,0.01976 -3.69261,1.253536 c -7.570958,2.570112 -8.290478,2.625872 -13.90493,1.077504 -6.035272,-1.664424 -9.208216,-1.751464 -13.0572,-0.358176 -3.581304,1.296392 -6.144423,1.796928 -7.945498,1.551632 l 0,0 z"
     id="path3060"
     inkscape:connector-curvature="0" />
  <rect
     style="color:#000000;fill:#000000;fill-opacity:1;stroke:none;stroke-width:0.2;marker:none;visibility:visible;display:inline;overflow:visible;enable-background:accumulate"
     id="rect3100"
     width="3.9530368"
     height="2.325316"
     x="28.07023"
     y="18.657152"
     rx="1.1433567"
     ry="0.19974314" />
  <rect
     style="color:#000000;fill:#000000;fill-opacity:1;stroke:none;stroke-width:0.2;marker:none;visibility:visible;display:inline;overflow:visible;enable-background:accumulate"
     id="rect3102"
     width="3.7205055"
     height="1.6277211"
     x="40.859467"
     y="18.657152"
     rx="0.91468537"
     ry="0.15979451" />
  <rect
     style="color:#000000;fill:#000000;fill-opacity:1;stroke:none;stroke-width:0.2;marker:none;visibility:visible;display:inline;overflow:visible;enable-background:accumulate"
     id="rect3104"
     width="3.7205055"
     height="1.8602527"
     x="54.811348"
     y="17.727026"
     rx="0.73174828"
     ry="0.1278356" />
  <rect
     style="color:#000000;fill:#000000;fill-opacity:1;stroke:none;stroke-width:0.2;marker:none;visibility:visible;display:inline;overflow:visible;enable-background:accumulate"
     id="rect3106"
     width="4.4180999"
     height="2.5578475"
     x="18.071371"
     y="24.935511"
     rx="0.58539861"
     ry="0.10226848" />
  <rect
     style="color:#000000;fill:#000000;fill-opacity:1;stroke:none;stroke-width:0.2;marker:none;visibility:visible;display:inline;overflow:visible;enable-background:accumulate"
     id="rect3108"
     width="3.7205055"
     height="2.325316"
     x="35.976303"
     y="25.400576"
     rx="0.46831888"
     ry="0.081814781" />
  <rect
     style="color:#000000;fill:#000000;fill-opacity:1;stroke:none;stroke-width:0.2;marker:none;visibility:visible;display:inline;overflow:visible;enable-background:accumulate"
     id="rect3110"
     width="3.7205055"
     height="2.325316"
     x="51.555916"
     y="24.935511"
     rx="0.3746551"
     ry="0.065451823" />
  <rect
     style="color:#000000;fill:#ce394f;fill-opacity:1;stroke:none;stroke-width:0.2;marker:none;visibility:visible;display:inline;overflow:visible;enable-background:accumulate"
     id="rect3112"
     width="3.9530368"
     height="2.0927844"
     x="65.507812"
     y="25.633104"
     rx="0.29972407"
     ry="0.052361459" />
  <path
     style="fill:none;stroke:#000000;stroke-width:0.80000001px;stroke-linecap:butt;stroke-linejoin:miter;stroke-opacity:1"
     d="m 9.0026381,51.211572 c 34.6472069,1.860256 33.0194869,1.62772 33.0194869,1.62772"
     id="path4035"
     inkscape:connector-curvature="0" />
  <path
     style="fill:none;stroke:#000000;stroke-width:0.80000001px;stroke-linecap:butt;stroke-linejoin:miter;stroke-opacity:1"
     d="M 9.4677021,52.839292 43.184783,52.606764 26.907571,61.210436 z"
     id="path4037"
     inkscape:connector-curvature="0" />
  <path
     style="fill:none;stroke:#000000;stroke-width:0.80000001px;stroke-linecap:butt;stroke-linejoin:miter;stroke-opacity:1"
     d="M 13.653271,52.606764 10.165297,52.374236"
     id="path4039"
     inkscape:connector-curvature="0" />
  <path
     style="fill:#eee969;fill-opacity:1;stroke:#000000;stroke-width:0.80000001px;stroke-linecap:butt;stroke-linejoin:miter;stroke-opacity:1"
     d="M 20.861751,56.559806 9.0026381,50.746508 26.209977,60.047776 42.952251,52.1417 9.0026381,50.746508"
     id="path4041"
     inkscape:connector-curvature="0" />
  <path
     style="color:#000000;fill:#eee969;fill-opacity:1;stroke:none;stroke-width:0.2;marker:none;visibility:visible;display:inline;overflow:visible;enable-background:accumulate"
     id="path4047"
     d="m 23.094363,51.8469 c 0.465106,0.158776 0.940928,0.1404 1.368424,0.398736 0.324939,0.166072 0.59726,0.40036 0.956786,0.486912 0.405757,0.03224 0.786874,0.07544 1.144042,0.282616 0.289545,0.226728 0.493652,0.535704 0.758056,0.785704 0.03901,0.04832 0.07802,0.09662 0.117037,0.14492 0,0 -4.919085,2.955398 -4.919085,2.955398 l 0,0 c -0.03166,-0.036 -0.06334,-0.072 -0.095,-0.108 -0.196338,-0.21408 -0.377174,-0.4689 -0.637775,-0.60643 -0.371223,-0.0952 -0.759152,-0.10665 -1.117948,-0.25066 -0.339687,-0.15802 -0.642226,-0.37952 -0.981785,-0.53912 -0.396147,-0.11912 -0.834111,-0.17418 -1.244891,-0.1701 0,0 4.65214,-3.379976 4.65214,-3.379976 z"
     inkscape:connector-curvature="0" />
  <path
     style="color:#000000;fill:#eee969;fill-opacity:1;stroke:none;stroke-width:0.2;marker:none;visibility:visible;display:inline;overflow:visible;enable-background:accumulate"
     id="path4055"
     d="m 21.485687,53.805868 c 0.267323,0.147632 0.580572,0.1642 0.851131,0.30296 0.136312,0.06992 0.258902,0.16384 0.388882,0.24492 0.324998,0.228658 0.568369,0.552868 0.897166,0.772778 0,0 -2.901808,1.83854 -2.901808,1.83854 l 0,0 c -0.301479,-0.24061 -0.559884,-0.53068 -0.878983,-0.75121 -0.38885,-0.23873 -0.821444,-0.3392 -1.241996,-0.50936 0,0 2.885608,-1.898628 2.885608,-1.898628 z"
     inkscape:connector-curvature="0" />
  <path
     style="color:#000000;fill:#eee969;fill-opacity:1;stroke:none;stroke-width:0.2;marker:none;visibility:visible;display:inline;overflow:visible;enable-background:accumulate"
     d="m 18.193917,53.052756 -0.95,0.625 c 0.434381,0.118104 0.770748,0.37284 1.15,0.6 0.197081,0.135176 0.363478,0.29916 0.525,0.475 0.637338,-0.01 1.298649,0.02 1.65,0.575 0.08881,0.0307 0.184778,0.0738 0.275,0.1 0.2114,0.0614 0.128947,-0.11731 0.45,0.1 0.385522,0.26094 0.448657,0.36486 0.65,0.6 -0.231489,-0.20788 -0.372688,-0.38841 -0.675,-0.375 -0.183959,0.008 -0.314089,0.047 -0.4,0.075 0.06998,0.0603 0.124618,0.11939 0.175,0.2 0.05634,0.0901 0.108218,0.22367 0.15,0.35 0.285977,0.19166 0.653066,0.39374 0.9,0.6 0.144893,0.0872 0.277325,0.19414 0.425,0.275 0.202128,0.10543 0.09328,0.0538 0.275,0.175 l 0.975,-0.625 c -0.188117,-0.1341 -0.09597,-0.0715 -0.3,-0.175 -0.146655,-0.0848 -0.311008,-0.12774 -0.45,-0.225 -0.09328,-0.0653 -0.155462,-0.16156 -0.25,-0.225 -0.04895,-0.0328 -0.122984,-0.0472 -0.175,-0.075 -0.322916,-0.1256 -0.55291,-0.3519 -0.85,-0.525 -0.315214,-0.1345 -0.663671,-0.24391 -0.925,-0.475 -0.275375,-0.17906 -0.469127,-0.44523 -0.7,-0.675 -0.227898,-0.280448 -0.456096,-0.563328 -0.75,-0.775 -0.383382,-0.219896 -0.738475,-0.484832 -1.175,-0.6 z"
     id="path4057"
     inkscape:connector-curvature="0" />
  <path
     style="fill:#c73a4d;fill-opacity:1;stroke:#000000;stroke-width:0.80000001px;stroke-linecap:butt;stroke-linejoin:miter;stroke-opacity:1"
     d="m 3.3825951,42.584356 76.6037799,0.37736 -1.50944,9.245288 -74.1509439,-2.641512 z"
     id="path4077"
     inkscape:connector-curvature="0" />
  <path
     style="fill:#e5e060;fill-opacity:1;stroke:#000000;stroke-width:0.80000001px;stroke-linecap:butt;stroke-linejoin:miter;stroke-opacity:1"
     d="m 11.118445,51.452284 15.283019,8.490572 -4.528301,-6.98114 z"
     id="path4087"
     inkscape:connector-curvature="0" />
  <path
     style="color:#000000;fill:#e5e060;fill-opacity:1;stroke:none;stroke-width:0.2;marker:none;visibility:visible;display:inline;overflow:visible;enable-background:accumulate"
     id="path4093"
     d="m 15.193679,51.744068 c 0.42902,0.004 0.85808,0.0032 1.287119,0.0032 0.401254,-3.92e-4 0.802509,-6.16e-4 1.203764,-7.36e-4 0.371615,0.01424 0.747908,-0.0316 1.116044,0.02704 0.323424,0.07944 0.652601,0.120088 0.984236,0.142784 0.37717,0.0024 0.751843,0.06216 1.113909,0.166488 0.365682,0.12284 0.745481,0.178824 1.128391,0.209648 0.376232,0.02336 0.753401,0.02216 1.130187,0.02232 0.188655,-1.44e-4 0.37731,-5.92e-4 0.565964,-8e-4 0,0 -0.7493,0.544632 -0.7493,0.544632 l 0,0 c -0.188714,3.68e-4 -0.377428,8e-4 -0.566142,7.28e-4 -0.378364,-7.76e-4 -0.75724,-5.04e-4 -1.134776,-0.02888 -0.38633,-0.03648 -0.767676,-0.102256 -1.137464,-0.22348 -0.361952,-0.09266 -0.730912,-0.147776 -1.105095,-0.15092 -0.332944,-0.02632 -0.661867,-0.07512 -0.988193,-0.146976 -0.366985,-0.04096 -0.738285,-0.0072 -1.106942,-0.01808 -0.400583,-1.2e-4 -0.801166,-3.44e-4 -1.20175,-7.28e-4 -0.431636,-3.28e-4 -0.863294,-0.0016 -1.294915,0.0032 0,0 0.754963,-0.548512 0.754963,-0.548512 z"
     inkscape:connector-curvature="0" />
  <path
     style="color:#000000;fill:#e5e060;fill-opacity:1;stroke:none;stroke-width:0.2;marker:none;visibility:visible;display:inline;overflow:visible;enable-background:accumulate"
     id="path4095"
     d="m 14.62764,51.744068 c 0.416653,-0.0032 0.827579,-0.009 1.238859,0.062 0.326833,0.0472 0.653241,0.1254 0.952332,0.267824 0.269996,0.107464 0.539118,0.220488 0.815179,0.312928 0.323245,0.02416 0.575936,0.203456 0.864926,0.324296 0.349199,0.113872 0.715737,0.143896 1.07378,0.22188 0.392611,0.0616 0.779415,0.125872 1.159755,0.243824 0.455732,0.150176 0.932951,0.208696 1.409179,0.245648 0.401201,0.02528 0.803387,0.02456 1.205197,0.02456 0,0 -0.749277,0.544256 -0.749277,0.544256 l 0,0 c -0.402531,-8e-4 -0.805526,-0.0024 -1.207143,-0.03256 -0.480341,-0.04328 -0.96012,-0.110896 -1.420356,-0.260928 -0.381054,-0.108048 -0.768317,-0.16824 -1.157825,-0.236512 -0.362663,-0.07688 -0.737163,-0.102472 -1.085792,-0.235464 -0.284985,-0.125528 -0.546131,-0.279776 -0.862648,-0.317768 -0.276195,-0.09895 -0.550691,-0.204616 -0.820161,-0.319856 -0.298389,-0.127856 -0.613827,-0.20656 -0.935237,-0.250128 -0.409913,-0.06488 -0.821655,-0.0516 -1.235729,-0.04544 0,0 0.754961,-0.548512 0.754961,-0.548512 z"
     inkscape:connector-curvature="0" />
  <path
     style="color:#000000;fill:#e5e060;fill-opacity:1;stroke:none;stroke-width:0.2;marker:none;visibility:visible;display:inline;overflow:visible;enable-background:accumulate"
     id="path4097"
     d="m 18.023867,51.744068 c 0.518343,0.06888 1.037321,0.1246 1.539097,0.27708 0.367163,0.09085 0.694372,0.282248 1.05543,0.388688 0.305049,0.134544 0.578397,0.307384 0.904713,0.39244 0.351014,0.07192 0.710949,0.07408 1.067754,0.07848 0.185897,0.07208 0.601042,0.0064 0.698041,0.21096 -0.6871,0.498208 -0.839651,0.64768 -1.484695,0.366792 -0.296661,-0.134816 -0.575892,-0.279704 -0.896865,-0.350464 -0.353902,-0.06088 -0.714275,-0.06192 -1.072287,-0.06536 -0.377287,-0.0016 -0.754576,5.2e-4 -1.131863,0.0016 -0.363161,0.0016 -0.726345,-8e-4 -1.089498,0.0024 0.227903,-0.09309 -0.132658,0.02224 -0.103654,0.0032 0.649979,-0.42156 0.708455,-0.634288 1.301777,-0.52176 0.342421,0.07352 0.647494,0.254416 0.973612,0.3762 0.307569,0.168608 0.633249,0.301576 0.942263,0.465648 0.281599,0.178216 0.615233,0.186856 0.925723,0.27384 0.301112,0.06384 0.58744,0.166712 0.881246,0.255472 0.282378,0.09579 0.579109,0.167648 0.85645,0.278464 0.136361,0.06184 0.280547,0.09834 0.425432,0.133008 0,0 -0.76514,0.52748 -0.76514,0.52748 l 0,0 c -0.14675,-0.039 -0.292509,-0.0804 -0.432104,-0.14135 -0.280747,-0.10019 -0.568515,-0.185466 -0.852935,-0.273962 -0.291174,-0.09258 -0.580314,-0.183512 -0.8784,-0.2524 -0.319289,-0.0776 -0.650789,-0.112056 -0.936547,-0.291552 -0.309065,-0.15724 -0.625578,-0.300136 -0.934698,-0.457944 -0.319474,-0.124944 -0.624628,-0.298392 -0.965801,-0.357888 -0.189827,-0.02288 -0.09425,-0.0172 -0.293931,-0.0164 -0.04498,1.84e-4 -0.165666,0.03352 -0.13494,6.72e-4 0.561348,-0.600168 0.38242,-0.55544 0.744334,-0.54788 0.362011,0.0032 0.724047,-1.84e-4 1.086066,-7.2e-5 0.377588,-8e-4 0.755186,-0.0032 1.132772,-4.72e-4 0.362839,0.0048 0.728596,0.0086 1.085636,0.08095 0.321019,0.08091 0.604539,0.232184 0.906319,0.363064 0.06858,0.0284 0.198957,0.08654 0.275204,0.103032 0.419977,0.0909 0.951423,-0.385464 -0.401784,0.474952 0.0099,0.0098 0.04228,0.02376 0.02962,0.0296 -0.02993,0.01384 -0.563578,-0.164784 -0.639711,-0.126384 -0.362426,-0.0064 -0.728568,-0.01184 -1.082929,-0.09686 -0.322007,-0.09505 -0.59671,-0.272656 -0.90657,-0.394504 -0.355389,-0.11576 -0.683757,-0.300016 -1.048023,-0.392344 -0.499509,-0.144632 -1.016542,-0.207144 -1.534073,-0.247912 0,0 0.754962,-0.548512 0.754962,-0.548512 z"
     inkscape:connector-curvature="0" />
  <path
     style="color:#000000;fill:#e5e060;fill-opacity:1;stroke:none;stroke-width:0.2;marker:none;visibility:visible;display:inline;overflow:visible;enable-background:accumulate"
     id="path4099"
     d="m 18.595162,52.340236 c 0.410974,0.04232 0.794972,0.1756 1.178345,0.32084 0.338539,0.117816 0.662606,0.273984 0.99516,0.408568 0.352997,0.164104 0.678878,0.377544 0.998531,0.59828 0.290673,0.195824 0.592945,0.37896 0.875896,0.586056 0.293313,0.21824 0.630891,0.361646 0.933252,0.565566 0.293904,0.16272 0.58267,0.32399 0.836131,0.54727 0.256037,0.16868 0.479371,0.38302 0.746996,0.53408 0.295111,0.16072 0.621631,0.22505 0.906682,0.40438 0,0 -0.77903,0.5031 -0.77903,0.5031 l 0,0 c -0.287253,-0.17034 -0.616062,-0.23642 -0.906674,-0.40208 -0.26722,-0.16078 -0.501996,-0.36956 -0.756752,-0.54846 -0.25351,-0.21678 -0.54207,-0.37037 -0.828278,-0.53815 -0.305689,-0.20039 -0.642647,-0.34803 -0.935797,-0.56823 -0.284904,-0.20323 -0.582894,-0.38978 -0.873259,-0.584972 -0.31642,-0.21512 -0.635841,-0.429072 -0.988454,-0.581328 -0.330488,-0.136472 -0.654982,-0.28848 -0.991842,-0.407856 -0.381807,-0.14436 -0.767742,-0.263488 -1.176383,-0.30368 0,0 0.765476,-0.533384 0.765476,-0.533384 z"
     inkscape:connector-curvature="0" />
  <path
     style="color:#000000;fill:#e5e060;fill-opacity:1;stroke:none;stroke-width:0.2;marker:none;visibility:visible;display:inline;overflow:visible;enable-background:accumulate"
     id="path4105"
     d="m 24.207884,55.100216 c 0.271408,0.213 0.523177,0.45632 0.756189,0.7112 0.235132,0.27327 0.329188,0.61151 0.456561,0.93846 0.102359,0.26862 0.169645,0.5599 0.387864,0.75978 0.22017,0.15459 0.362549,0.38878 0.570612,0.55432 0.265672,0.15185 0.572286,0.12283 0.838745,0.27193 0.266716,0.11683 0.46859,0.29502 0.649644,0.51975 0,0 -1.118375,0.67011 -1.118375,0.67011 l 0,0 c -0.173874,-0.20887 -0.368949,-0.36547 -0.620259,-0.47441 -0.277451,-0.12488 -0.606194,-0.10027 -0.855407,-0.29638 -0.202257,-0.17723 -0.359135,-0.39963 -0.575787,-0.56292 -0.219077,-0.22597 -0.31267,-0.51641 -0.412393,-0.80963 -0.121162,-0.31244 -0.204359,-0.63702 -0.432435,-0.89649 -0.223883,-0.24234 -0.459466,-0.48802 -0.737622,-0.66678 0,0 1.092663,-0.71894 1.092663,-0.71894 z"
     inkscape:connector-curvature="0" />
  <path
     style="color:#000000;fill:#e5e060;fill-opacity:1;stroke:none;stroke-width:0.2;marker:none;visibility:visible;display:inline;overflow:visible;enable-background:accumulate"
     id="path4107"
     d="m 23.068663,54.03938 c 0.273666,0.369048 0.700966,0.534136 1.07359,0.777156 0.330889,0.18566 0.608956,0.41692 0.826278,0.72613 0.230248,0.29785 0.363724,0.6569 0.619095,0.93459 0.120552,0.11085 0.265258,0.1544 0.418208,0.19821 0,0 -1.075081,0.73022 -1.075081,0.73022 l 0,0 c -0.167993,-0.0615 -0.326218,-0.12476 -0.454325,-0.25638 -0.24929,-0.28873 -0.394389,-0.64441 -0.627394,-0.9461 -0.210079,-0.29183 -0.481222,-0.50815 -0.7928,-0.68914 -0.387804,-0.24843 -0.819211,-0.43505 -1.111082,-0.80794 0,0 1.123511,-0.666746 1.123511,-0.666746 z"
     inkscape:connector-curvature="0" />
  <path
     style="color:#000000;fill:#e5e060;fill-opacity:1;stroke:none;stroke-width:0.2;marker:none;visibility:visible;display:inline;overflow:visible;enable-background:accumulate"
     id="path4109"
     d="m 21.755054,53.968148 c 0.379302,0.25444 0.769545,0.498592 1.123953,0.787398 0.286028,0.2313 0.596471,0.42095 0.918728,0.59548 0.336507,0.16419 0.60577,0.42644 0.927334,0.61281 0.26745,0.14042 0.570894,0.15206 0.858986,0.22018 0,0 -1.065507,0.73957 -1.065507,0.73957 l 0,0 c -0.301646,-0.0607 -0.612032,-0.0961 -0.883064,-0.25495 -0.31354,-0.19528 -0.589248,-0.4459 -0.92516,-0.60673 -0.328881,-0.17549 -0.634683,-0.3859 -0.924756,-0.62038 -0.350892,-0.28179 -0.732346,-0.53223 -1.123177,-0.75445 0,0 1.092663,-0.718928 1.092663,-0.718928 z"
     inkscape:connector-curvature="0" />
  <path
     style="color:#000000;fill:#e5e060;fill-opacity:1;stroke:none;stroke-width:0.2;marker:none;visibility:visible;display:inline;overflow:visible;enable-background:accumulate"
     id="path4111"
     d="m 23.836264,53.812324 c 0.307754,0.297936 0.538623,0.66316 0.804427,0.996582 0.1933,0.27343 0.447,0.49185 0.678258,0.73248 0.190309,0.20385 0.348333,0.42855 0.496454,0.66451 0,0 -1.126354,0.65609 -1.126354,0.65609 l 0,0 c -0.144274,-0.22824 -0.29756,-0.4458 -0.482653,-0.64309 -0.229585,-0.24652 -0.488361,-0.46543 -0.676309,-0.74744 -0.254698,-0.32803 -0.481811,-0.68716 -0.797963,-0.960772 0,0 1.10414,-0.69836 1.10414,-0.69836 z"
     inkscape:connector-curvature="0" />
  <path
     style="color:#000000;fill:#e5e060;fill-opacity:1;stroke:none;stroke-width:0.2;marker:none;visibility:visible;display:inline;overflow:visible;enable-background:accumulate"
     id="path4113"
     d="m 23.068663,53.66202 c 0.211047,0.32896 0.444485,0.643296 0.675271,0.958726 0.216378,0.36203 0.515947,0.63923 0.893387,0.82234 0.21765,0.12131 0.115766,0.0538 0.306649,0.201 0,0 -1.098282,0.69432 -1.098282,0.69432 l 0,0 c -0.178879,-0.13131 -0.08249,-0.0688 -0.290834,-0.18489 -0.382041,-0.20733 -0.700159,-0.49843 -0.926189,-0.87325 -0.228422,-0.31697 -0.458998,-0.63168 -0.683513,-0.951502 0,0 1.123511,-0.666744 1.123511,-0.666744 z"
     inkscape:connector-curvature="0" />
  <path
     style="color:#000000;fill:#e5e060;fill-opacity:1;stroke:none;stroke-width:0.2;marker:none;visibility:visible;display:inline;overflow:visible;enable-background:accumulate"
     id="path4115"
     d="m 24.750768,55.747276 c 0.127514,0.32098 0.305329,0.62422 0.524037,0.89152 0.107151,0.17493 0.249115,0.28467 0.431717,0.36861 0,0 -1.08832,0.71468 -1.08832,0.71468 l 0,0 c -0.187575,-0.10467 -0.343954,-0.23067 -0.459085,-0.41638 -0.219059,-0.27899 -0.399632,-0.58784 -0.544982,-0.91125 0,0 1.136633,-0.64718 1.136633,-0.64718 z"
     inkscape:connector-curvature="0" />
  <path
     style="color:#000000;fill:#e5e060;fill-opacity:1;stroke:none;stroke-width:0.2;marker:none;visibility:visible;display:inline;overflow:visible;enable-background:accumulate"
     id="path4117"
     d="m 25.576176,58.936416 c -0.285833,-0.20352 -0.584978,-0.3876 -0.812282,-0.65859 -0.203751,-0.22642 -0.39984,-0.45264 -0.517892,-0.73569 -0.02054,-0.0407 -0.0411,-0.0814 -0.06164,-0.12208 0,0 1.131934,-0.64497 1.131934,-0.64497 l 0,0 c 0.02199,0.0437 0.04398,0.0874 0.06597,0.13117 0.109336,0.27106 0.306275,0.48219 0.495451,0.70144 0.219153,0.25456 0.506755,0.43522 0.791127,0.6098 0,0 -1.092663,0.71892 -1.092663,0.71892 z"
     inkscape:connector-curvature="0" />
  <path
     style="color:#000000;fill:#e5e060;fill-opacity:1;stroke:none;stroke-width:0.2;marker:none;visibility:visible;display:inline;overflow:visible;enable-background:accumulate"
     id="path4119"
     d="m 14.589954,51.257004 c 0.404913,-0.004 0.80665,-0.01144 1.191747,0.127168 0.295472,0.125688 0.607593,0.188688 0.909178,0.29596 0.267149,0.04144 0.488536,0.164552 0.721899,0.291328 0,0 -1.08847,0.711208 -1.08847,0.711208 l 0,0 c -0.228331,-0.1228 -0.457652,-0.216896 -0.71192,-0.273632 -0.299938,-0.105352 -0.612326,-0.168368 -0.90512,-0.295256 -0.383008,-0.113088 -0.77834,-0.09971 -1.174261,-0.08886 0,0 1.056947,-0.76792 1.056947,-0.76792 z"
     inkscape:connector-curvature="0" />
  <path
     style="color:#000000;fill:#e5e060;fill-opacity:1;stroke:none;stroke-width:0.2;marker:none;visibility:visible;display:inline;overflow:visible;enable-background:accumulate"
     id="path4121"
     d="m 14.589954,51.445684 c 0.409141,-0.02336 0.806258,0.02904 1.207914,0.09717 0.239,0.004 0.419485,0.11752 0.612517,0.240624 0,0 -1.095015,0.705568 -1.095015,0.705568 l 0,0 c -0.182132,-0.111784 -0.360152,-0.19152 -0.579131,-0.20172 -0.399584,-0.06736 -0.797323,-0.100568 -1.203232,-0.07376 0,0 1.056947,-0.76792 1.056947,-0.76792 z"
     inkscape:connector-curvature="0" />
  <path
     style="color:#000000;fill:#e5e060;fill-opacity:1;stroke:none;stroke-width:0.2;marker:none;visibility:visible;display:inline;overflow:visible;enable-background:accumulate"
     id="path4123"
     d="m 14.401275,51.257004 c 0.348205,-0.0024 0.706624,0.01344 1.03827,0.130168 0.487283,0.777344 -1.166341,0.817536 -1.605147,0.823176 -0.05883,3.92e-4 -0.117666,7.84e-4 -0.176499,8e-4 0,0 1.049464,-0.764448 1.049464,-0.764448 l 0,0 c 0.05897,-8e-4 0.117941,-0.0024 0.176912,-0.0032 0.698692,-0.02264 1.096363,-0.348512 -0.52866,0.678128 -0.326224,-0.104208 -0.672168,-0.108376 -1.011287,-0.09714 0,0 1.056947,-0.76792 1.056947,-0.76792 z"
     inkscape:connector-curvature="0" />
  <path
     style="color:#000000;fill:#e5e060;fill-opacity:1;stroke:none;stroke-width:0.2;marker:none;visibility:visible;display:inline;overflow:visible;enable-background:accumulate"
     id="path4125"
     d="m 14.066743,52.898684 c -0.273388,-0.237824 -0.630942,-0.317304 -0.917604,-0.531648 -0.205042,-0.13656 -0.398079,-0.291648 -0.620045,-0.400304 0,0 1.08925,-0.714048 1.08925,-0.714048 l 0,0 c 0.220432,0.121512 0.421717,0.273928 0.627951,0.41764 0.287169,0.199336 0.632656,0.295344 0.91311,0.509432 0,0 -1.092662,0.718928 -1.092662,0.718928 z"
     inkscape:connector-curvature="0" />
  <path
     style="color:#000000;fill:#e5e060;fill-opacity:1;stroke:none;stroke-width:0.2;marker:none;visibility:visible;display:inline;overflow:visible;enable-background:accumulate"
     id="path4127"
     d="m 21.571086,52.955116 c 0.669318,0.0124 1.338785,0.01032 2.008185,0.01048 0.337935,-4.48e-4 0.675867,-0.0016 1.013799,-0.0032 0,0 -1.037523,0.753808 -1.037523,0.753808 l 0,0 c -0.334822,-0.0016 -0.669644,-0.0032 -1.004468,-0.0032 -0.678987,1.52e-4 -1.358032,-0.0016 -2.03694,0.01048 0,0 1.056947,-0.76792 1.056947,-0.76792 z"
     inkscape:connector-curvature="0" />
  <path
     style="fill:#33a567;fill-opacity:1;stroke:#000000;stroke-width:0.80000001px;stroke-linecap:butt;stroke-linejoin:miter;stroke-opacity:1"
     d="m 2.6278781,37.30134 5.283019,0 11.8867939,-0.56604 0,4.339624 -4.716981,0.37736 -8.6792469,-2.075472 z"
     id="path4131"
     inkscape:connector-curvature="0" />
  <path
     style="color:#000000;fill:#33a567;fill-opacity:1;stroke:none;stroke-width:0.2;marker:none;visibility:visible;display:inline;overflow:visible;enable-background:accumulate"
     d="m 20.152923,38.80154 c 0,-0.985848 0.0318,-1.389152 0.07067,-0.896224 0.03887,0.492928 0.03887,1.299528 0,1.792456 -0.03886,0.49292 -0.07067,0.08962 -0.07067,-0.896232 z"
     id="path4133"
     inkscape:connector-curvature="0" />
  <path
     style="color:#000000;fill:#33a567;fill-opacity:1;stroke:none;stroke-width:0.2;marker:none;visibility:visible;display:inline;overflow:visible;enable-background:accumulate"
     d="m 20.114696,38.80154 c 0,-0.259432 0.04282,-0.36556 0.09517,-0.235848 0.05234,0.12972 0.05234,0.341984 0,0.471696 -0.05234,0.12972 -0.09517,0.0236 -0.09517,-0.235848 z"
     id="path4135"
     inkscape:connector-curvature="0" />
  <path
     style="color:#000000;fill:#33a567;fill-opacity:1;stroke:none;stroke-width:0.2;marker:none;visibility:visible;display:inline;overflow:visible;enable-background:accumulate"
     d="m 39.141509,41.131636 c -0.915671,-0.179312 -2.185842,-0.605336 -3.584906,-1.2024 -2.09625,-0.8946 -2.942612,-1.131592 -4.716242,-1.320592 -2.408742,-0.256688 -4.765725,0.0516 -7.858905,1.027808 l -2.613532,0.824856 -0.05486,-1.608352 c -0.03018,-0.8846 -0.0125,-1.65072 0.03928,-1.702496 0.124139,-0.124144 4.842572,-0.08361 15.675959,0.134672 4.877358,0.09826 13.580194,0.226128 19.339626,0.284136 5.759432,0.058 12.976408,0.160904 16.037728,0.228656 l 5.566038,0.123184 -3.67924,1.20296 c -6.770948,2.213816 -7.315718,2.248432 -13.140478,0.834968 -6.862664,-1.66532 -8.797696,-1.698136 -13.463296,-0.228304 -4.004155,1.261448 -6.188655,1.666936 -7.54717,1.400904 l 0,0 z"
     id="path4137"
     inkscape:connector-curvature="0" />
  <path
     style="color:#000000;fill:#33a567;fill-opacity:1;stroke:none;stroke-width:0.2;marker:none;visibility:visible;display:inline;overflow:visible;enable-background:accumulate"
     id="path4139"
     d="m 20.250331,38.04946 c 0.35014,-0.04368 0.668588,-0.194976 1.009409,-0.279144 0.224526,-0.04152 0.119404,-0.0208 0.315531,-0.0612 0,0 -1.039197,0.786696 -1.039197,0.786696 l 0,0 c -0.190519,0.03664 -0.08831,0.0156 -0.306339,0.0644 -0.34284,0.09728 -0.675039,0.24336 -1.03635,0.257136 0,0 1.056946,-0.767912 1.056946,-0.767912 z"
     inkscape:connector-curvature="0" />
  <path
     style="color:#000000;fill:#33a567;fill-opacity:1;stroke:none;stroke-width:0.2;marker:none;visibility:visible;display:inline;overflow:visible;enable-background:accumulate"
     id="path4141"
     d="m 19.495614,37.29474 c 0.384119,-0.0064 0.762897,-0.09732 1.145449,-0.139688 0.343316,2.4e-4 0.59146,0.167624 0.744488,0.4654 0.121669,0.33364 0.120513,0.69364 0.126619,1.044208 -0.0099,0.20024 -0.05608,0.428952 -0.247102,0.53896 -1.223137,0.704424 -0.794518,0.613896 -1.417361,0.719088 -0.350294,0.02936 -0.711903,0.08621 -1.039509,-0.064 -0.582954,-0.543048 0.750123,-0.964088 1.324232,-1.027224 0.330176,-0.03608 0.664762,0.01608 0.981589,-0.09759 -0.359324,0.200976 -0.72829,0.385608 -1.077972,0.60292 -0.01616,0.01008 0.03846,0.03616 0.02617,0.05072 -0.03219,0.03808 -0.650508,-0.186784 -0.704636,-0.206176 -1.175716,-0.399104 -1.059933,-0.25656 0.409734,-1.11388 0.31903,0.0056 0.622986,-0.09302 0.935992,-0.142184 0.221365,-0.01792 0.477285,0.07528 0.299941,0.323472 -0.175631,0.187064 -0.357712,0.357464 -0.501552,0.57136 -0.179299,0.287312 -0.272387,0.617864 -0.270948,0.955576 0.06246,0.283664 0.361063,0.336568 0.613075,0.31232 0.434359,-0.07576 1.177188,-0.59332 -0.753136,0.479072 0,0 1.211666,-0.482272 1.211666,-0.482272 l 0,0 c -0.5985,0.352896 -0.909387,0.731016 -1.511832,0.769184 -0.325248,-0.02528 -0.632386,-0.136016 -0.716592,-0.484784 -0.01741,-0.356336 0.06768,-0.711208 0.23614,-1.026288 0.137443,-0.21736 0.279461,-0.422416 0.490944,-0.573856 0.01635,-0.02216 0.02614,-0.0512 0.04906,-0.06648 0.03994,-0.02664 0.187948,0.03296 -0.184865,0.004 -0.311322,0.05648 -0.620635,0.121616 -0.933997,0.162048 0.344086,-0.216168 0.701409,-0.412576 1.032256,-0.648512 0.02072,-0.0148 -0.08642,-0.05352 -0.06359,-0.04224 0.231658,0.114376 0.468542,0.218144 0.721933,0.282888 0.191465,0.06264 0.657054,0.143704 0.796647,0.2962 0.02579,0.02816 0.07391,0.08507 0.0423,0.106504 -0.374319,0.25384 -0.787952,0.444216 -1.181929,0.66632 -0.32612,0.06488 -0.659842,0.0316 -0.987963,0.08403 -0.0462,0.0098 -0.09335,0.01576 -0.138597,0.02928 -0.03704,0.01104 -0.13984,0.06488 -0.107247,0.04408 0.340453,-0.217064 0.693973,-0.41336 1.032218,-0.633848 0.02398,-0.0156 -0.229598,0.0556 0.01287,0.08081 0.3182,0.106024 0.667074,0.0472 0.992582,8e-4 0.523618,-0.149864 0.142468,-0.05464 -0.831445,0.543168 -0.03834,0.02352 0.08424,-0.03344 0.121699,-0.05832 0.130276,-0.0866 0.170536,-0.2154 0.184341,-0.364584 -0.0045,-0.330984 7.43e-4,-0.671288 -0.10359,-0.989192 -0.131147,-0.259016 -0.363065,-0.359808 -0.651899,-0.337288 -0.387233,0.04824 -0.771527,0.13584 -1.163123,0.133776 0,0 1.056947,-0.76792 1.056947,-0.76792 z"
     inkscape:connector-curvature="0" />
  <path
     style="color:#000000;fill:#33a567;fill-opacity:1;stroke:none;stroke-width:0.2;marker:none;visibility:visible;display:inline;overflow:visible;enable-background:accumulate"
     id="path4143"
     d="m 22.175239,37.87398 c -0.422741,-0.0188 -0.848561,0.02536 -1.268396,-0.03176 -0.348935,-0.07432 -0.701597,-0.118832 -1.057268,-0.141984 -0.320198,-0.01416 -0.641032,-0.02272 -0.961537,-0.01528 -0.0069,7.76e-4 -0.02639,0.0064 -0.02063,0.0024 1.270794,-0.84904 0.833321,-0.77032 1.798029,-0.767712 0.375756,7.52e-4 0.751512,7.12e-4 1.127268,7.28e-4 0.272497,-0.01632 0.550303,0.02384 0.822089,-0.0064 -1.179373,0.883712 -0.750829,0.87224 -1.412373,0.70392 -0.144795,-0.03688 -0.281623,-0.05808 -0.422413,-0.11008 -0.138763,-0.05856 -0.284414,-0.09357 -0.430633,-0.126872 0,0 1.070412,-0.739216 1.070412,-0.739216 l 0,0 c 0.148053,0.03848 0.295044,0.0796 0.437975,0.134784 0.829255,0.243544 1.000338,-0.08393 -0.309621,0.912448 -0.267651,-0.01344 -0.536408,-0.0032 -0.804456,-0.0064 -0.376244,-1.6e-5 -0.752488,-7.2e-5 -1.128733,2.16e-4 -0.75688,8e-4 -1.181096,0.211696 0.333801,-0.767408 0.318747,0.01184 0.638133,0.0056 0.956455,0.02968 0.355955,0.0284 0.70744,0.08283 1.058481,0.147784 0.421268,0.0388 0.84592,0.0098 1.2685,0.01336 0,0 -1.056947,0.76792 -1.056947,0.76792 z"
     inkscape:connector-curvature="0" />
  <path
     style="color:#000000;fill:#33a567;fill-opacity:1;stroke:none;stroke-width:0.2;marker:none;visibility:visible;display:inline;overflow:visible;enable-background:accumulate"
     id="path4145"
     d="m 19.455271,38.734484 c 0.36688,-0.157056 0.760424,-0.223272 1.154236,-0.268184 0.336251,-0.102752 0.678668,-0.166936 1.028176,-0.199784 0.283512,0.01112 0.549916,-0.06568 0.823728,-0.12408 0,0 -1.035761,0.786768 -1.035761,0.786768 l 0,0 c -0.27461,0.06016 -0.548363,0.105072 -0.830338,0.111848 -0.346583,0.04216 -0.682469,0.126696 -1.023407,0.199112 -0.391343,0.05384 -0.782562,0.131056 -1.138032,0.311344 0,0 1.021398,-0.817024 1.021398,-0.817024 z"
     inkscape:connector-curvature="0" />
  <path
     style="color:#000000;fill:#33a567;fill-opacity:1;stroke:none;stroke-width:0.2;marker:none;visibility:visible;display:inline;overflow:visible;enable-background:accumulate"
     id="path4147"
     d="M 19.545585,40.751988 C 19.335282,40.41822 19.21207,40.041284 19.003415,39.7065 c -0.129044,-0.2732 -0.388779,-0.422832 -0.605578,-0.616088 -0.543579,-0.637744 0.572911,-1.070504 1.207578,-1.1888 0.347754,-0.06432 0.690704,-0.144864 1.04359,-0.185584 0.25448,-0.02592 0.510251,-0.03264 0.765789,-0.03856 0,0 -1.046883,0.765024 -1.046883,0.765024 l 0,0 c -0.253159,0.0081 -0.506596,0.01736 -0.758187,0.0488 -0.349966,0.04848 -0.693093,0.127352 -1.036988,0.207528 -0.484323,0.207712 -0.103495,0.05072 0.90543,-0.570304 0.02122,-0.01304 -0.04997,0.01488 -0.0671,0.03304 -0.04143,0.04376 -0.01095,0.105296 0.01381,0.144768 0.02206,0.0352 0.05319,0.06376 0.07979,0.09566 0.229972,0.19732 0.487151,0.369144 0.621289,0.65248 0.201465,0.333968 0.32232,0.708592 0.543148,1.03076 0,0 -1.123512,0.666752 -1.123512,0.666752 z"
     inkscape:connector-curvature="0" />
  <path
     style="color:#000000;fill:#33a567;fill-opacity:1;stroke:none;stroke-width:0.2;marker:none;visibility:visible;display:inline;overflow:visible;enable-background:accumulate"
     id="path4155"
     d="m 78.929815,37.312268 c 0.42571,0.01512 0.85187,0.01072 1.27777,0.0096 0,0 -2.54037,1.845688 -2.54037,1.845688 l 0,0 c -0.43474,-8e-4 -0.86971,-0.0048 -1.30427,0.0096 0,0 2.56687,-1.864936 2.56687,-1.864936 z"
     inkscape:connector-curvature="0" />
  <path
     style="color:#000000;fill:#33a567;fill-opacity:1;stroke:none;stroke-width:0.2;marker:none;visibility:visible;display:inline;overflow:visible;enable-background:accumulate"
     id="path4157"
     d="m 78.192975,36.983188 c 0.41552,0.09105 0.84144,0.117144 1.26527,0.136352 0.27169,0.01032 0.54357,0.0116 0.81541,0.01272 0,0 -2.54795,1.84692 -2.54795,1.84692 l 0,0 c -0.273,-0.0048 -0.54607,-0.0108 -0.81858,-0.02904 -0.44103,-0.03208 -0.88042,-0.08067 -1.31676,-0.153416 0,0 2.60261,-1.81352 2.60261,-1.81352 z"
     inkscape:connector-curvature="0" />
  <path
     style="color:#000000;fill:#33a567;fill-opacity:1;stroke:none;stroke-width:0.2;marker:none;visibility:visible;display:inline;overflow:visible;enable-background:accumulate"
     id="path4159"
     d="m 77.797745,36.934908 c 0.27707,0.01176 0.55448,0.01024 0.83174,0.01048 0,0 -2.53795,1.84392 -2.53795,1.84392 l 0,0 c -0.28689,2.88e-4 -0.57393,-8e-4 -0.86066,0.01048 0,0 2.56687,-1.864944 2.56687,-1.864944 z"
     inkscape:connector-curvature="0" />
  <path
     style="color:#000000;fill:#33a567;fill-opacity:1;stroke:none;stroke-width:0.2;marker:none;visibility:visible;display:inline;overflow:visible;enable-background:accumulate"
     id="path4161"
     d="m 76.080695,38.019468 c 0.42828,-0.06128 0.85928,-0.09617 1.29118,-0.11776 0.31575,0.04392 0.51821,-0.160032 0.78546,-0.273984 0,0 -2.47653,1.966336 -2.47653,1.966336 l 0,0 c -0.26907,0.13072 -0.53705,0.177096 -0.83826,0.168232 -0.43328,0.02968 -0.86755,0.07048 -1.29085,0.172008 0,0 2.529,-1.914832 2.529,-1.914832 z"
     inkscape:connector-curvature="0" />
  <path
     style="color:#000000;fill:#33a567;fill-opacity:1;stroke:none;stroke-width:0.2;marker:none;visibility:visible;display:inline;overflow:visible;enable-background:accumulate"
     id="path4163"
     d="m 75.137305,38.208148 c 0.40121,-0.02672 0.77274,-0.178648 1.16609,-0.25292 0.36658,-0.0873 0.75574,-0.012 1.11601,-0.11364 0.20281,-0.08654 0.4327,-0.06376 0.64144,-0.114752 0.0967,-0.0236 0.18537,-0.07304 0.27975,-0.104872 0.30604,-0.0516 0.57107,-0.194352 0.87736,-0.25088 0.22179,-0.02752 0.10966,-0.01592 0.33642,-0.0344 0,0 -2.52924,1.887064 -2.52924,1.887064 l 0,0 c -0.21519,0.03784 -0.10944,0.0156 -0.31731,0.0664 -0.28922,0.09214 -0.57291,0.194104 -0.86889,0.264248 -0.3084,0.08322 -0.63086,0.11256 -0.94268,0.182936 -0.36839,0.01976 -0.73894,0.03488 -1.09932,0.12152 -0.39496,0.09608 -0.78701,0.198304 -1.188638,0.264144 0,0 2.529008,-1.914832 2.529008,-1.914832 z"
     inkscape:connector-curvature="0" />
  <path
     style="color:#000000;fill:#33a567;fill-opacity:1;stroke:none;stroke-width:0.2;marker:none;visibility:visible;display:inline;overflow:visible;enable-background:accumulate"
     id="path4165"
     d="m 74.212835,37.878308 c 0.20086,0.0094 0.40199,0.0091 0.60301,0.01024 0,0 -2.538578,1.844392 -2.538578,1.844392 l 0,0 c -0.21045,8e-4 -0.42099,0.0016 -0.63129,0.01024 0,0 2.566858,-1.864936 2.566858,-1.864936 z"
     inkscape:connector-curvature="0" />
  <path
     style="color:#000000;fill:#33a567;fill-opacity:1;stroke:none;stroke-width:0.2;marker:none;visibility:visible;display:inline;overflow:visible;enable-background:accumulate"
     id="path4167"
     d="m 74.624935,37.841796 c 0.24588,0.305216 0.57824,0.46028 0.95032,0.549808 0.24464,0.03856 0.12173,0.02288 0.36875,0.04704 0,0 -2.5725,1.8146 -2.5725,1.8146 l 0,0 c -0.26425,-0.04784 -0.13253,-0.01896 -0.39508,-0.08694 -0.390048,-0.138496 -0.726828,-0.348776 -1.032968,-0.628456 0,0 2.681478,-1.696016 2.681478,-1.696016 z"
     inkscape:connector-curvature="0" />
  <path
     style="color:#000000;fill:#33a567;fill-opacity:1;stroke:none;stroke-width:0.2;marker:none;visibility:visible;display:inline;overflow:visible;enable-background:accumulate"
     id="path4169"
     d="m 4.7788771,36.180188 c 0.395551,0.004 0.799765,0.04496 1.173501,0.179656 0.297082,0.104824 0.601374,0.213688 0.871499,0.377552 0.158854,0.11396 0.362727,0.1076 0.524923,0.212672 0.08502,0.05504 0.157882,0.127064 0.239152,0.187552 0.225358,0.147024 0.450542,0.289864 0.68696,0.420272 0.281351,0.118864 0.591769,0.12448 0.892442,0.135976 0.392196,-8e-4 0.765046,-0.01864 1.1370609,0.11752 0,0 -2.5959449,1.779136 -2.5959449,1.779136 l 0,0 c -0.364085,-0.06752 -0.734841,-0.02904 -1.103025,-0.05912 -0.341429,-0.0284 -0.684811,-0.07184 -0.985353,-0.2502 -0.238799,-0.144912 -0.479579,-0.284768 -0.70633,-0.448624 -0.22705,-0.164912 -0.497373,-0.223312 -0.738908,-0.36492 -0.269432,-0.125632 -0.539037,-0.250616 -0.826758,-0.329704 -0.373681,-0.08641 -0.75252,-0.12416 -1.136089,-0.09279 0,0 2.56687,-1.864944 2.56687,-1.864944 z"
     inkscape:connector-curvature="0" />
  <path
     style="color:#000000;fill:#33a567;fill-opacity:1;stroke:none;stroke-width:0.2;marker:none;visibility:visible;display:inline;overflow:visible;enable-background:accumulate"
     id="path4171"
     d="m 5.3796521,35.955004 c 0.330233,0.205936 0.682362,0.367208 0.958932,0.646608 0.210338,0.241184 0.485246,0.295648 0.788114,0.326936 0.324442,0.01544 0.631396,0.130632 0.927628,0.254248 0.295194,0.06064 0.5737,0.166496 0.864621,0.243272 0.325171,0.08204 0.664063,0.04064 0.987521,0.120352 0.3175349,0.07264 0.6299649,0.119136 0.9399259,0.21868 0.301001,0.0524 0.570282,0.190144 0.869552,0.251376 0.275083,0.146928 0.574097,0.19728 0.880361,0.225584 0.359859,0.0244 0.720829,0.02272 1.081321,0.02296 0,0 -2.548937,1.85032 -2.548937,1.85032 l 0,0 c -0.369928,-0.0024 -0.741188,-0.004 -1.108749,-0.05112 -0.3127699,-0.05032 -0.6080769,-0.144512 -0.9047219,-0.253488 -0.294261,-0.08514 -0.579783,-0.196864 -0.879586,-0.26364 -0.300069,-0.08497 -0.612629,-0.116008 -0.915722,-0.189864 -0.33871,-0.03216 -0.682382,-0.04224 -1.009579,-0.146464 -0.294314,-0.09302 -0.595725,-0.158704 -0.8844,-0.268288 -0.282659,-0.110008 -0.58134,-0.166648 -0.882195,-0.20068 -0.34833,-0.076 -0.653176,-0.213296 -0.892123,-0.488264 -0.279199,-0.257224 -0.635281,-0.401152 -0.953446,-0.602576 0,0 2.681483,-1.696016 2.681483,-1.696016 z"
     inkscape:connector-curvature="0" />
  <path
     style="color:#000000;fill:#c23d4e;fill-opacity:1;stroke:none;stroke-width:0.2;marker:none;visibility:visible;display:inline;overflow:visible;enable-background:accumulate"
     id="path4173"
     d="m 70.672657,40.669084 c 0.99281,-1.28332 1.77436,-1.406504 3.552778,-2.441936 0.0516,0.0064 0.10326,0.01264 0.1549,0.01888 0,0 -2.536078,1.903376 -2.536078,1.903376 l 0,0 c -0.0269,0.01856 -0.0537,0.03712 -0.0805,0.05576 4.686028,-2.756888 2.586878,-1.812088 1.822718,-0.791744 0,0 -2.913788,1.255664 -2.913788,1.255664 z"
     inkscape:connector-curvature="0" />
  <path
     style="color:#000000;fill:#c23d4e;fill-opacity:1;stroke:none;stroke-width:0.2;marker:none;visibility:visible;display:inline;overflow:visible;enable-background:accumulate"
     id="path4175"
     d="m 4.2609351,44.571572 c 0.490823,0.18428 0.964712,0.397304 1.428708,0.64072 0.319042,0.15044 0.667208,0.194128 1.001699,0.29796 0.29547,0.06728 0.564136,0.230768 0.786208,0.433904 0.183901,0.129504 0.37849,0.239576 0.548251,0.389088 0,0 -2.683325,1.680944 -2.683325,1.680944 l 0,0 c -0.180828,-0.13496 -0.376562,-0.24876 -0.550694,-0.392504 -0.213757,-0.160336 -0.449068,-0.271688 -0.710724,-0.331432 -0.346046,-0.105368 -0.709029,-0.162264 -1.020739,-0.35992 -0.448425,-0.24972 -0.918509,-0.454488 -1.417308,-0.582528 0,0 2.617924,-1.776232 2.617924,-1.776232 z"
     inkscape:connector-curvature="0" />
  <path
     style="color:#000000;fill:#c23d4e;fill-opacity:1;stroke:none;stroke-width:0.2;marker:none;visibility:visible;display:inline;overflow:visible;enable-background:accumulate"
     id="path4177"
     d="m 4.6258881,45.072564 c 0.166954,0.374144 0.481271,0.599744 0.79196,0.841648 0.26888,0.20956 0.54437,0.404864 0.819062,0.606248 0.25776,0.18016 0.565944,0.204832 0.869945,0.225168 0.240693,0.01184 0.481739,0.0116 0.722651,0.01192 0,0 -2.549931,1.849488 -2.549931,1.849488 l 0,0 c -0.248102,-0.004 -0.496683,-0.0064 -0.743571,-0.0344 -0.348198,-0.04904 -0.68142,-0.136472 -0.964003,-0.35772 -0.283331,-0.195992 -0.542934,-0.417544 -0.818205,-0.624272 -0.328067,-0.2608 -0.631498,-0.53976 -0.856437,-0.898824 0,0 2.728529,-1.61924 2.728529,-1.61924 z"
     inkscape:connector-curvature="0" />
  <path
     style="color:#000000;fill:#c23d4e;fill-opacity:1;stroke:none;stroke-width:0.2;marker:none;visibility:visible;display:inline;overflow:visible;enable-background:accumulate"
     id="path4179"
     d="m 4.6258881,43.751804 c 0.251926,0.275888 0.440798,0.600376 0.685237,0.882104 0.190069,0.21864 0.286118,0.515584 0.525356,0.68784 0.193271,0.21684 0.453833,0.253888 0.727655,0.282264 0,0 -2.583266,1.81484 -2.583266,1.81484 l 0,0 c -0.318144,-0.0672 -0.60322,-0.18192 -0.831312,-0.423536 -0.223017,-0.216584 -0.361622,-0.489568 -0.543145,-0.739096 -0.234659,-0.296608 -0.429551,-0.62632 -0.709054,-0.885168 0,0 2.728529,-1.619248 2.728529,-1.619248 z"
     inkscape:connector-curvature="0" />
  <path
     style="color:#000000;fill:#c23d4e;fill-opacity:1;stroke:none;stroke-width:0.2;marker:none;visibility:visible;display:inline;overflow:visible;enable-background:accumulate"
     id="path4181"
     d="m 4.9925541,43.270148 c 0.02306,0.38696 0.125828,0.747168 0.2868,1.096616 0.07612,0.182552 0.256612,0.2098 0.395618,0.321888 0.07576,0.06112 0.142706,0.132608 0.218342,0.193856 0.106712,0.07552 0.22889,0.100648 0.353732,0.12764 0,0 -2.612087,1.780408 -2.612087,1.780408 l 0,0 c -0.152333,-0.0592 -0.300659,-0.120408 -0.425682,-0.229776 -0.238726,-0.204632 -0.533777,-0.348904 -0.676427,-0.644344 -0.164276,-0.36984 -0.276872,-0.749632 -0.337716,-1.150664 0,0 2.79742,-1.495624 2.79742,-1.495624 z"
     inkscape:connector-curvature="0" />
  <path
     style="color:#000000;fill:#c23d4e;fill-opacity:1;stroke:none;stroke-width:0.2;marker:none;visibility:visible;display:inline;overflow:visible;enable-background:accumulate"
     id="path4185"
     d="m 4.6258881,44.317844 c 0.169025,0.188168 0.504133,0.545352 0.729962,0.256688 -0.880291,0.49908 -1.757728,1.003232 -2.640874,1.497248 -0.02351,0.01312 0.07089,0.008 0.13563,-0.17732 0.03772,-0.107776 0.01718,-0.210704 -0.01558,-0.315096 -0.169153,-0.199336 -0.446718,-0.176736 -0.655092,-0.06136 6.865014,-3.128336 2.819227,-1.876504 2.265358,-1.20308 -0.07086,0.08614 -0.09296,0.152048 -0.139806,0.253296 -0.06377,0.130856 -0.127135,0.25928 -0.203793,0.383008 0,0 -2.892371,1.28344 -2.892371,1.28344 l 0,0 c 0.07177,-0.12592 0.1709,-0.226128 0.213528,-0.367192 0.08259,-0.142576 0.110758,-0.298952 0.196048,-0.439768 0.618805,-1.021648 3.73801,-0.09322 3.072543,-1.826584 0.371789,-0.0048 0.71369,0.108648 0.912914,0.443448 0.584129,1.49056 -1.621207,1.928312 -2.757918,2.47144 -0.383337,-0.06104 -0.68977,-0.29856 -0.94907,-0.578896 0,0 2.728529,-1.619248 2.728529,-1.619248 z"
     inkscape:connector-curvature="0" />
  <path
     style="color:#000000;fill:#c23d4e;fill-opacity:1;stroke:none;stroke-width:0.2;marker:none;visibility:visible;display:inline;overflow:visible;enable-background:accumulate"
     id="path4187"
     d="m 5.0032461,43.751804 c 0.102017,0.145456 0.246721,0.234904 0.394726,0.3258 0,0 -2.648007,1.69632 -2.648007,1.69632 l 0,0 c -0.170489,-0.12048 -0.338352,-0.24296 -0.475247,-0.402872 0,0 2.728528,-1.619248 2.728528,-1.619248 z"
     inkscape:connector-curvature="0" />
  <path
     style="color:#000000;fill:#c23d4e;fill-opacity:1;stroke:none;stroke-width:0.2;marker:none;visibility:visible;display:inline;overflow:visible;enable-background:accumulate"
     id="path4189"
     d="m 5.1562351,43.350004 c 0.222571,0.06136 0.108083,0.03376 0.343691,0.08198 0,0 -2.580369,1.808424 -2.580369,1.808424 l 0,0 c -0.230991,-0.03224 -0.120813,-0.02536 -0.330191,-0.02544 0,0 2.566869,-1.864936 2.566869,-1.864936 z"
     inkscape:connector-curvature="0" />
  <path
     style="color:#000000;fill:#c23d4e;fill-opacity:1;stroke:none;stroke-width:0.2;marker:none;visibility:visible;display:inline;overflow:visible;enable-background:accumulate"
     id="path4191"
     d="m 5.3505301,43.152028 c -0.159314,0.250984 -0.305905,0.509648 -0.460847,0.7636 0,0 -2.880949,1.280816 -2.880949,1.280816 l 0,0 c 0.140132,-0.250008 0.277441,-0.505864 0.447725,-0.735048 0,0 2.894071,-1.309368 2.894071,-1.309368 z"
     inkscape:connector-curvature="0" />
  <path
     style="color:#000000;fill:#c23d4e;fill-opacity:1;stroke:none;stroke-width:0.2;marker:none;visibility:visible;display:inline;overflow:visible;enable-background:accumulate"
     id="path4193"
     d="m 81.022515,44.05246 c -0.0191,0.440808 -0.005,0.8798 -0.0587,1.318416 -0.0457,0.404504 -0.11531,0.803752 -0.26594,1.183056 -0.11015,0.290176 -0.26261,0.557864 -0.36347,0.851584 -0.0921,0.274048 -0.26254,0.498952 -0.43305,0.726704 -0.17882,0.204208 -0.43354,0.31244 -0.60738,0.521016 -0.0316,0.03552 -0.0631,0.07096 -0.0947,0.106496 0,0 -2.93676,1.18364 -2.93676,1.18364 l 0,0 c 0.0374,-0.02136 0.0747,-0.04264 0.11203,-0.064 0.232,-0.23484 -0.0494,0.06552 0.16707,-0.222408 0.10407,-0.13848 0.29005,-0.2262 0.43666,-0.307048 0.20388,-0.161176 0.37242,-0.391952 0.48142,-0.625936 0.0774,-0.139928 0.0985,-0.283776 0.16234,-0.429568 0.21331,-0.487216 -0.0756,0.204808 0.15142,-0.258688 0.0256,-0.05224 0.0394,-0.109456 0.059,-0.164176 0.16319,-0.358264 0.28939,-0.71576 0.31431,-1.115008 0.0682,-0.419896 0.0847,-0.838424 0.0487,-1.263624 0,0 2.82701,-1.440432 2.82701,-1.440432 z"
     inkscape:connector-curvature="0" />
  <path
     style="color:#000000;fill:#c23d4e;fill-opacity:1;stroke:none;stroke-width:0.2;marker:none;visibility:visible;display:inline;overflow:visible;enable-background:accumulate"
     id="path4195"
     d="m 78.024055,45.21494 c -0.34988,-0.01512 -0.71352,0.09009 -0.99232,0.302896 0.8602,-0.495584 1.71597,-0.998928 2.5806,-1.486744 0.0382,-0.02152 -0.0702,0.05368 -0.0991,0.0867 -0.12599,0.144072 -0.15885,0.340072 -0.16714,0.523712 0.0607,0.236112 0.38567,0.208488 0.58215,0.222616 0.0571,0.0024 0.11431,0.004 0.17147,0.0064 0,0 -2.56421,1.834264 -2.56421,1.834264 l 0,0 c -0.0613,-0.0064 -0.12258,-0.01312 -0.18387,-0.01968 -0.37095,-0.0684 -0.70338,-0.20048 -0.81552,-0.59724 -0.15623,-1.557248 1.6735,-1.884648 2.95455,-2.551384 0.35598,-0.129824 0.7189,-0.19944 1.10023,-0.1866 0,0 -2.56686,1.864936 -2.56686,1.864936 z"
     inkscape:connector-curvature="0" />
  <path
     style="color:#000000;fill:#c23d4e;fill-opacity:1;stroke:none;stroke-width:0.2;marker:none;visibility:visible;display:inline;overflow:visible;enable-background:accumulate"
     id="path4197"
     d="m 81.223025,42.832172 c 0.15846,0.384736 0.24386,0.790592 0.301,1.200968 0.007,0.06944 0.0142,0.13892 0.0212,0.208384 0,0 -2.78919,1.452368 -2.78919,1.452368 l 0,0 c -0.005,-0.06624 -0.01,-0.132464 -0.0149,-0.198696 -0.0417,-0.374424 -0.0992,-0.7544 -0.27853,-1.091304 0,0 2.7604,-1.57172 2.7604,-1.57172 z"
     inkscape:connector-curvature="0" />
  <path
     style="color:#000000;fill:#c23d4e;fill-opacity:1;stroke:none;stroke-width:0.2;marker:none;visibility:visible;display:inline;overflow:visible;enable-background:accumulate"
     id="path4199"
     d="m 74.713135,43.433916 c 0.0488,-0.01624 0.10026,-0.026 0.14632,-0.0488 0.0522,-0.02592 0.0955,-0.06704 0.14599,-0.09617 0.22698,-0.130976 0.47177,-0.19576 0.72608,-0.247888 0.28967,-0.185408 0.64917,-0.152224 0.95367,-0.279688 0.29651,-0.13872 0.6363,-0.08518 0.93609,-0.195368 0.31429,-0.109616 0.6481,-0.128256 0.97764,-0.143848 0.34581,0.03456 0.61961,0.187384 0.86369,0.426168 0.20145,0.157048 0.36872,0.35116 0.56176,0.517592 0,0 -2.68844,1.665392 -2.68844,1.665392 l 0,0 c -0.18399,-0.17468 -0.36112,-0.357344 -0.5597,-0.515888 -0.20962,-0.166496 -0.4427,-0.250664 -0.71454,-0.220712 -0.3238,0.03344 -0.6394,0.09816 -0.95251,0.187392 -0.31639,0.03872 -0.62505,0.10288 -0.92661,0.208376 -0.32666,0.05856 -0.63392,0.168504 -0.94955,0.26756 -0.35027,0.117488 -0.668458,0.30044 -1.000418,0.460104 0,0 2.480528,-1.984192 2.480528,-1.984192 z"
     inkscape:connector-curvature="0" />
  <path
     style="color:#000000;fill:#c23d4e;fill-opacity:1;stroke:none;stroke-width:0.2;marker:none;visibility:visible;display:inline;overflow:visible;enable-background:accumulate"
     id="path4201"
     d="m 76.891975,44.460228 c -0.3652,-0.123824 -0.75677,-0.11084 -1.12538,-0.211912 -0.32042,-0.07768 -0.63135,-0.195672 -0.9285,-0.338808 -0.31763,-0.144712 -0.66422,-0.178256 -1.00802,-0.200376 -0.36006,0.0064 -0.73661,-0.06608 -1.08754,0.02832 -0.496158,0.0913 -0.949258,0.31764 -1.402138,0.528944 -1.15907,0.498512 -3.33472,1.832096 1.505898,-0.9504 -0.20788,0.180664 -0.442278,0.325752 -0.652038,0.503568 -0.11447,0.147808 -0.0536,0.0732 -0.18336,0.22328 0,0 -2.91579,1.22296 -2.91579,1.22296 l 0,0 c 0.13047,-0.134352 0.0675,-0.06816 0.18909,-0.198312 0.14412,-0.267864 0.39746,-0.396016 0.63137,-0.576568 1.28584,-0.76464 2.4935,-1.586248 3.863018,-2.161736 0.47663,-0.215672 0.9687,-0.416376 1.49194,-0.480856 0.37521,-0.0064 0.7513,-6.64e-4 1.12529,0.0324 0.36923,0.04368 0.73211,0.118288 1.07049,0.279 0.2924,0.112128 0.57944,0.23776 0.88999,0.293352 0.36438,0.0616 0.73423,0.123992 1.10255,0.1422 0,0 -2.56687,1.864944 -2.56687,1.864944 z"
     inkscape:connector-curvature="0" />
  <path
     style="color:#000000;fill:#c23d4e;fill-opacity:1;stroke:none;stroke-width:0.2;marker:none;visibility:visible;display:inline;overflow:visible;enable-background:accumulate"
     id="path4203"
     d="m 57.251461,44.600628 c -0.43048,-0.0588 -0.851328,-0.157736 -1.277616,-0.24036 -0.472672,-0.03224 -0.917984,-0.14128 -1.37156,-0.270656 -0.423568,-0.149648 -0.881304,-0.126072 -1.310992,-0.233904 -0.336432,-0.08069 -0.672496,-0.135792 -1.007024,-0.22316 -0.34396,-0.06288 -0.710416,-0.155792 -1.056984,-0.0772 -0.304296,0.048 -0.555608,0.20804 -0.857272,0.271696 -0.399032,0.03912 -0.747168,0.242912 -1.097296,0.419376 -0.965808,0.441992 -2.397816,1.329376 2.231424,-1.30268 0.05064,-0.0288 -0.09562,0.06648 -0.143904,0.09901 -0.05112,0.03448 -0.102944,0.068 -0.154416,0.101952 -0.052,0.0352 -0.104072,0.0704 -0.156104,0.105592 -0.264456,0.159 -0.48168,0.380888 -0.714808,0.581344 -0.19832,0.19936 -0.33876,0.437816 -0.483328,0.676624 -0.1102,0.17876 -0.0584,0.08722 -0.155296,0.274688 0,0 -2.867744,1.31776 -2.867744,1.31776 l 0,0 c 0.07776,-0.219328 0.03368,-0.113656 0.131192,-0.317432 0.155976,-0.240072 0.266048,-0.50864 0.462808,-0.715872 0.09778,-0.155096 0.178288,-0.20816 0.319944,-0.315616 0.17536,-0.133024 0.06744,-0.0856 0.228336,-0.249504 0.04256,-0.04336 0.09374,-0.07736 0.140616,-0.116056 0.160344,-0.08741 0.300552,-0.19568 0.457568,-0.288176 1.147448,-0.675904 2.043064,-1.311272 3.162528,-1.815848 0.36508,-0.175184 0.749,-0.293432 1.143688,-0.381768 0.29156,-0.103112 0.574288,-0.221208 0.890728,-0.220872 0.375632,0.01752 0.749024,0.06592 1.112936,0.163512 0.331336,0.07944 0.670568,0.1218 0.999528,0.213136 0.437864,0.07016 0.878528,0.126336 1.302544,0.263968 0.451376,0.120344 0.910216,0.162896 1.368696,0.24664 0.432072,0.09231 0.865984,0.16464 1.304424,0.220296 0,0 -2.602616,1.81352 -2.602616,1.81352 z"
     inkscape:connector-curvature="0" />
  <path
     style="color:#000000;fill:#c23d4e;fill-opacity:1;stroke:none;stroke-width:0.2;marker:none;visibility:visible;display:inline;overflow:visible;enable-background:accumulate"
     id="path4205"
     d="m 49.099573,43.302492 c 0.462312,-0.174912 0.930232,-0.33192 1.397048,-0.493984 0.6136,-0.229944 1.272944,-0.245168 1.904872,-0.386912 0.421752,-0.112288 0.853024,-0.165744 1.287736,-0.188624 0.374864,-0.01384 0.75008,-0.01136 1.125128,-0.01056 0.376352,8e-4 0.752704,0.0016 1.129064,0.0024 0.06288,4e-5 0.125736,8e-5 0.188608,1.2e-4 0,0 -2.548152,1.851024 -2.548152,1.851024 l 0,0 c -0.06288,-6.4e-5 -0.125784,-1.2e-4 -0.18868,-1.84e-4 -0.376392,-4.88e-4 -0.752792,-0.0016 -1.129184,-0.0016 -0.370568,8e-4 -0.741616,7.84e-4 -1.111368,0.02848 -0.418384,0.03856 -0.830192,0.115008 -1.241808,0.198344 -0.638824,0.09507 -1.27948,0.189632 -1.883824,0.430848 -0.482704,0.170792 -0.966032,0.34716 -1.458456,0.485656 0,0 2.529016,-1.914824 2.529016,-1.914824 z"
     inkscape:connector-curvature="0" />
  <path
     style="color:#000000;fill:#c23d4e;fill-opacity:1;stroke:none;stroke-width:0.2;marker:none;visibility:visible;display:inline;overflow:visible;enable-background:accumulate"
     id="path4207"
     d="m 48.533533,42.736452 c 0.411352,-0.01424 0.795824,-0.136072 1.19256,-0.227672 0.324152,-0.122944 0.619408,-0.288992 0.928024,-0.443736 0.365312,-0.12128 0.736848,-0.23396 1.113424,-0.317968 0.449176,-0.107792 0.900376,-0.185 1.360544,-0.2318 0.431328,-0.03936 0.864624,-0.0444 1.297416,-0.04696 0.258416,-4.72e-4 0.129632,-3.84e-4 0.386344,-2.72e-4 0,0 -2.547224,1.850904 -2.547224,1.850904 l 0,0 c -0.254968,4.16e-4 -0.127168,-4.8e-5 -0.383408,0.0016 -0.422368,0.0048 -0.845416,0.0148 -1.265256,0.06544 -0.45584,0.0612 -0.902368,0.163392 -1.348496,0.27436 -0.36336,0.1038 -0.736456,0.192008 -1.069832,0.375608 -0.30776,0.164576 -0.636608,0.295152 -0.97452,0.382528 -0.403064,0.09903 -0.81268,0.148168 -1.218584,0.232976 0,0 2.529008,-1.914824 2.529008,-1.914824 z"
     inkscape:connector-curvature="0" />
  <path
     style="color:#000000;fill:#c23d4e;fill-opacity:1;stroke:none;stroke-width:0.2;marker:none;visibility:visible;display:inline;overflow:visible;enable-background:accumulate"
     id="path4209"
     d="m 46.144357,44.631348 c 0.232216,-0.30692 0.513096,-0.563992 0.802912,-0.813952 1.117984,-0.973752 2.299784,-1.732608 3.716512,-1.783752 0.311304,-0.110968 0.637712,-0.147568 0.965168,-0.16984 0.384808,-0.02136 0.770264,-0.01632 1.15544,-0.01528 0.423696,0.04152 0.754112,-0.03224 1.158816,-0.1126 0.350592,-0.06096 0.707152,-0.0688 1.062032,-0.0756 0.37944,0.0072 0.762688,-0.0364 1.136712,0.0352 0.368176,0.03672 0.710776,0.154656 1.065008,0.249472 0.284656,0.161152 0.593616,0.27604 0.87668,0.437296 0.279208,0.138688 0.58472,0.190664 0.878424,0.291184 0.329,0.0588 0.64764,0.152512 0.97468,0.221816 0.365056,0.0708 0.733376,0.02288 1.065488,0.206256 0,0 -2.633112,1.750944 -2.633112,1.750944 l 0,0 c -0.331984,-0.09414 -0.689696,-0.06088 -1.02216,-0.162408 -0.3342,-0.0805 -0.673992,-0.138096 -1.001496,-0.243256 -0.305016,-0.102472 -0.626512,-0.160168 -0.903656,-0.334248 -0.277504,-0.13252 -0.550472,-0.278472 -0.83972,-0.38344 -0.337192,-0.101928 -0.67844,-0.176792 -1.029768,-0.213256 -0.36992,-0.01488 -0.740488,-0.0048 -1.110472,0.0048 -0.34776,0.016 -0.695272,0.04328 -1.036296,0.117328 -0.3914,0.07072 -0.78408,0.06136 -1.180904,0.05712 -0.383392,0.004 -0.767752,0.0083 -1.149448,0.04784 -0.325392,0.04256 -0.641408,0.132536 -0.968024,0.161744 -0.171376,0.01904 -0.340848,0.038 -0.505088,0.09426 -0.05128,0.0176 -0.196952,0.08941 -0.150272,0.06192 2.413224,-1.421344 3.46752,-1.887904 2.405008,-1.411368 -0.30676,0.205512 -0.576232,0.44944 -0.81868,0.726016 0,0 -2.913784,1.255664 -2.913784,1.255664 z"
     inkscape:connector-curvature="0" />
  <path
     style="color:#000000;fill:#c23d4e;fill-opacity:1;stroke:none;stroke-width:0.2;marker:none;visibility:visible;display:inline;overflow:visible;enable-background:accumulate"
     id="path4211"
     d="m 32.174995,44.082868 c -0.399717,0.01392 -0.787164,-0.08603 -1.180788,-0.13968 -0.366118,-0.123288 -0.744152,-0.188544 -1.12774,-0.222448 -0.317913,-0.107456 -0.644508,-0.163408 -0.977802,-0.1908 -0.361342,-0.0224 -0.723597,-0.02144 -1.085474,-0.02192 -0.3772,2.16e-4 -0.754399,8e-4 -1.131598,0.0016 -0.377587,3.76e-4 -0.755175,4.24e-4 -1.132762,4.56e-4 -0.299517,0.12216 -0.640208,0.09109 -0.934326,0.213816 0.06378,-0.112248 -0.33457,0.180592 -0.251798,0.133856 0.863986,-0.48784 1.718524,-0.992264 2.5818,-1.48136 0.0463,-0.02624 -0.08429,0.06544 -0.130176,0.09238 -0.943777,0.554088 -1.91068,1.069616 -2.838272,1.6504 -0.838,0.524688 1.712892,-0.988016 2.569339,-1.482016 -1.015639,0.693664 -0.383039,0.266584 -2.972929,1.713808 -0.866498,0.484192 3.425516,-2.006424 2.583715,-1.480464 -0.809024,0.50548 -1.978109,1.465528 -3.129545,1.717504 -1.080472,0.611264 1.649025,-0.946016 2.476895,-1.413104 0.03911,-0.02208 -0.07348,0.05168 -0.110001,0.07776 -0.08489,0.06072 -0.160006,0.13572 -0.250066,0.188488 -0.944696,0.55356 -1.896668,1.094608 -2.845001,1.641904 2.610888,-1.50032 3.411568,-1.994072 2.448919,-1.402408 0,0 -2.928119,1.191968 -2.928119,1.191968 l 0,0 c 0.803057,-0.96384 0.05689,-0.09726 2.940412,-1.767352 -0.852283,0.49656 -1.704572,0.993104 -2.55685,1.489672 -0.04461,0.026 0.09179,-0.048 0.13385,-0.07792 0.111101,-0.07912 0.106873,-0.11228 0.222204,-0.180048 0.938573,-0.551496 1.877301,-1.102872 2.82355,-1.641104 0.043,-0.02448 0.09422,-0.03024 0.141329,-0.04528 0.08908,-0.04 0.345683,-0.181504 0.261202,-0.132552 -0.859312,0.497896 -3.449121,1.97056 -2.578413,1.492872 9.542404,-5.235176 -1.858446,0.815408 0.397753,-0.21936 9.425908,-5.52744 -1.752996,1.015136 0.40017,-0.254192 0.941334,-0.554936 1.879924,-1.11468 2.828487,-1.65716 0.01216,-0.0072 0.278268,-0.07832 0.288047,-0.081 0.325339,-0.04736 0.645925,-0.138608 0.975781,-0.140344 0.377504,-8e-5 0.755008,-2e-4 1.132512,-7.12e-4 0.377664,-5.2e-4 0.755331,-0.0016 1.132995,-2.56e-4 0.369813,0.0032 0.740565,0.0048 1.10858,0.04584 0.329871,0.04456 0.648382,0.131776 0.974322,0.195168 0.383227,0.05336 0.75495,0.151208 1.132725,0.231568 0.389611,0.06184 0.777395,0.128656 1.173942,0.08762 0,0 -2.566869,1.864944 -2.566869,1.864944 z"
     inkscape:connector-curvature="0" />
  <path
     style="color:#000000;fill:#c23d4e;fill-opacity:1;stroke:none;stroke-width:0.2;marker:none;visibility:visible;display:inline;overflow:visible;enable-background:accumulate"
     id="path4213"
     d="m 23.958425,43.245236 c -5.468431,3.249784 -0.999901,0.390824 0.931068,-0.488464 0.414085,-0.156408 0.799995,-0.371952 1.218429,-0.521624 0.393951,-0.135816 0.765273,-0.294688 1.181173,-0.354936 0.368213,-0.03968 0.739222,-0.0368 1.109056,-0.03696 0.376616,8e-4 0.753229,0.0024 1.129845,0.0032 0.37744,6.88e-4 0.754881,7.52e-4 1.132321,8e-4 0.392419,-0.0032 0.771847,-0.03824 1.139676,0.115368 0.297644,0.173992 0.64756,0.175352 0.963904,0.285016 0.302678,0.113352 0.624357,0.138376 0.944016,0.15568 0.380946,-0.02312 0.744422,0.056 1.116769,0.119032 0.328596,0.07784 0.681985,0.142024 0.994781,0.274392 0.194905,0.07456 0.09716,0.03 0.29212,0.136088 0,0 -2.635795,1.74004 -2.635795,1.74004 l 0,0 c -0.183019,-0.07536 -0.09104,-0.03952 -0.275909,-0.10752 -0.314908,-0.08909 -0.627955,-0.191792 -0.953262,-0.235168 -0.366649,-0.06208 -0.732692,-0.08007 -1.104105,-0.093 -0.335964,-0.03328 -0.666055,-0.09306 -0.985407,-0.206128 -0.32993,-0.07472 -0.653918,-0.159864 -0.965338,-0.29536 -0.354406,-0.0724 -0.719999,-0.02312 -1.079482,-0.03728 -0.377569,-1.44e-4 -0.755138,-3.76e-4 -1.132706,-0.0016 -0.376198,-8e-4 -0.752408,-0.0032 -1.128601,-4.08e-4 -0.359785,0.0056 -0.722467,0.01032 -1.075905,0.08558 -0.38597,0.09749 -0.750006,0.259384 -1.127545,0.38412 -0.412885,0.175184 -0.810886,0.382824 -1.224855,0.555408 -2.96192,1.469336 8.281314,-4.68812 -0.944785,0.50748 0,0 2.480537,-1.984192 2.480537,-1.984192 z"
     inkscape:connector-curvature="0" />
  <path
     style="color:#000000;fill:#33a567;fill-opacity:1;stroke:none;stroke-width:0.2;marker:none;visibility:visible;display:inline;overflow:visible;enable-background:accumulate"
     id="path4215"
     d="m 24.080716,43.9417 c -0.411349,0.01424 -0.795822,0.136072 -1.192562,0.227672 -0.06274,0.01112 -0.12713,0.01528 -0.188235,0.03336 -0.104689,0.03096 -0.199417,0.09005 -0.303332,0.123512 -0.159124,0.05128 -0.320912,0.07392 -0.486006,0.09507 -0.223763,0.01872 -0.118982,-0.0056 -0.315652,0.068 0,0 2.510207,-1.918592 2.510207,-1.918592 l 0,0 c 0.21619,-0.02912 0.107671,-0.0124 0.325532,-0.05032 0.323427,-0.07704 0.63093,-0.206944 0.960475,-0.260496 0.40306,-0.09903 0.812673,-0.14816 1.218584,-0.232976 0,0 -2.529011,1.914824 -2.529011,1.914824 z"
     inkscape:connector-curvature="0" />
  <path
     style="color:#000000;fill:#33a567;fill-opacity:1;stroke:none;stroke-width:0.2;marker:none;visibility:visible;display:inline;overflow:visible;enable-background:accumulate"
     id="path4217"
     d="m 71.420277,39.743244 c -0.20086,-0.0094 -0.40199,-0.0091 -0.60301,-0.01024 0,0 2.538588,-1.844392 2.538588,-1.844392 l 0,0 c 0.21044,-8e-4 0.42098,-0.0016 0.63129,-0.01024 0,0 -2.566868,1.864936 -2.566868,1.864936 z"
     inkscape:connector-curvature="0" />
  <path
     style="color:#000000;fill:#33a567;fill-opacity:1;stroke:none;stroke-width:0.2;marker:none;visibility:visible;display:inline;overflow:visible;enable-background:accumulate"
     id="path4219"
     d="m 74.193905,38.774188 c 0.0575,-0.0072 0.11505,-0.01464 0.17258,-0.02192 0,0 -2.517478,1.896424 -2.517478,1.896424 l 0,0 c -0.0614,0.01344 -0.12274,0.02688 -0.18411,0.04032 0,0 2.529008,-1.914824 2.529008,-1.914824 z"
     inkscape:connector-curvature="0" />
  <path
     style="color:#000000;fill:#33a567;fill-opacity:1;stroke:none;stroke-width:0.2;marker:none;visibility:visible;display:inline;overflow:visible;enable-background:accumulate"
     id="path4221"
     d="m 73.835485,38.25566 c 0.27706,0.01176 0.55448,0.01024 0.83173,0.01048 0,0 -2.537938,1.84392 -2.537938,1.84392 l 0,0 c -0.2869,2.96e-4 -0.57394,-8e-4 -0.86066,0.01048 0,0 2.566868,-1.864944 2.566868,-1.864944 z"
     inkscape:connector-curvature="0" />
  <path
     style="color:#000000;fill:#33a567;fill-opacity:1;stroke:none;stroke-width:0.2;marker:none;visibility:visible;display:inline;overflow:visible;enable-background:accumulate"
     id="path4223"
     d="m 73.080765,37.878308 c 0.42569,0.01512 0.85186,0.01072 1.27777,0.0096 0.2049,0.009 0.41403,-0.03016 0.61387,0.03512 0.14952,0.04888 0.29273,0.149056 0.43753,0.212648 0,0 -2.63585,1.748344 -2.63585,1.748344 l 0,0 c -0.311508,-0.146184 -0.609028,-0.179168 -0.955918,-0.150424 -0.43475,-8e-4 -0.86971,-0.0048 -1.30427,0.0096 0,0 2.566868,-1.864936 2.566868,-1.864936 z"
     inkscape:connector-curvature="0" />
  <path
     style="color:#000000;fill:#c73a4d;fill-opacity:1;stroke:none;stroke-width:0.2;marker:none;visibility:visible;display:inline;overflow:visible;enable-background:accumulate"
     id="path4227"
     d="m 23.816551,44.057204 c 0.373354,-0.155616 0.747043,-0.302416 1.092163,-0.517128 0.06714,-0.03552 0.267233,-0.144624 0.201443,-0.106632 -0.780026,0.45052 -3.128762,1.78692 -2.349907,1.334384 1.10412,-0.641528 2.001601,-1.4842 3.207462,-1.740576 0.333921,-0.06816 0.681875,0.01032 0.990954,-0.14964 -0.897362,0.506176 -1.808487,0.988696 -2.692086,1.518528 -0.02412,0.01448 0.04179,0.03808 0.05886,0.0604 0.0116,0.0152 0.04023,0.064 0.02624,0.05104 -0.07137,-0.06656 -0.07622,-0.0999 -0.174361,-0.144328 -0.292022,-0.08777 -0.601148,-0.09038 -0.903552,-0.09856 -0.375945,-0.0064 -0.751965,-0.0032 -1.127939,-0.0024 -0.146929,0.0628 -0.319351,0.06 -0.467548,0.114608 -0.04507,0.01664 -0.166962,0.09512 -0.125155,0.07144 2.63966,-1.493912 3.432821,-2.036872 2.496209,-1.400864 -0.264187,0.138064 -0.428307,0.36244 -0.622568,0.578376 -0.144944,0.106792 -0.213209,0.426248 -0.305502,0.495752 0.07936,-0.0872 0.198324,-0.08282 0.297919,-0.125496 0.07778,-0.03336 0.14443,-0.0891 0.221463,-0.124136 -0.868875,0.493888 -1.736659,0.989704 -2.606626,1.481672 -0.03978,0.02248 0.07632,-0.0504 0.115919,-0.0732 0.944281,-0.543928 1.887832,-1.08916 2.835612,-1.626968 0.866829,-0.49188 -1.727141,0.995152 -2.592756,1.48916 -0.08691,0.0496 0.165615,-0.112704 0.243915,-0.175024 0.885789,-1.012344 2.067831,-1.856176 3.411161,-2.134776 0.216687,-0.06272 0.467634,0.01664 0.672636,-0.08992 0.08285,-0.04304 0.149575,-0.112232 0.228959,-0.161392 1.050113,-0.437448 0.231882,-0.103032 -2.465649,1.430856 -0.03997,0.02272 0.07674,-0.05072 0.115962,-0.07472 0.1205,-0.07368 0.22602,-0.157072 0.339818,-0.24124 1.103189,-0.805888 2.258862,-1.591416 3.557713,-2.027752 0.0891,-0.0132 0.178205,-0.0264 0.267309,-0.03952 0,0 -2.48402,1.89396 -2.48402,1.89396 l 0,0 c -0.08776,0.0284 -0.17552,0.05688 -0.26328,0.08528 -0.0605,0.0244 -0.122348,0.04568 -0.181495,0.0732 -0.04677,0.02176 -0.180219,0.100416 -0.135705,0.0744 4.51931,-2.645432 3.088021,-1.87512 2.175618,-1.231016 -1.029954,0.821272 -2.187365,1.462552 -3.393376,2.038424 -0.295618,0.130472 -0.628002,0.08226 -0.925671,0.21336 -1.011117,0.54452 -0.07146,0.04056 2.436196,-1.435872 0.04127,-0.02432 -0.08702,0.0412 -0.125998,0.06904 -0.131753,0.09409 -0.184569,0.243968 -0.315924,0.33816 -0.670794,0.946816 -2.48358,1.558248 -3.034015,1.884536 -0.856391,0.507664 1.721882,-0.999808 2.584018,-1.497648 0.03925,-0.02264 -0.07686,0.04808 -0.11528,0.07208 -0.943999,0.541352 -1.887998,1.082704 -2.831996,1.624064 -0.281616,0.103776 -0.562732,0.13424 -0.782628,-0.105728 -0.156673,-0.273664 -0.105493,-0.287 0.0156,-0.545912 0.02458,-0.05256 0.03836,-0.109552 0.05754,-0.16432 0.02548,-0.05 0.05097,-0.100024 0.07645,-0.150032 0.363149,-0.495168 -0.166003,0.20972 0.204343,-0.232168 0.126283,-0.15068 0.170011,-0.353616 0.38219,-0.416208 1.029475,-0.84096 2.223107,-1.760304 3.585923,-1.806176 0.379412,-6.88e-4 0.759052,-0.0032 1.138213,0.01288 0.346747,0.02128 0.704706,0.044 1.01215,0.2226 1.346558,1.008928 -1.225974,1.874752 -2.395302,2.1702 -0.326857,0.03576 -0.662151,0.0272 -0.976629,0.138016 -0.105712,0.04232 -0.408492,0.200496 -0.310203,0.143016 5.403211,-3.1598 0.960751,-0.524728 -0.692889,0.412856 -0.377315,0.188784 -0.769646,0.36288 -1.180904,0.461496 0,0 2.529011,-1.914832 2.529011,-1.914832 z"
     inkscape:connector-curvature="0" />
  <path
     style="color:#000000;fill:#000000;fill-opacity:1;stroke:none;stroke-width:0.2;marker:none;visibility:visible;display:inline;overflow:visible;enable-background:accumulate"
     d="m 65.609337,26.657824 0.0489,-0.936864 1.79227,0 1.79225,0 0.0489,0.936864 0.0489,0.936863 -1.88998,0 -1.88999,0 0.0489,-0.936863 z"
     id="path4245"
     inkscape:connector-curvature="0" />
  <path
     style="color:#000000;fill:#000000;fill-opacity:1;stroke:none;stroke-width:0.2;marker:none;visibility:visible;display:inline;overflow:visible;enable-background:accumulate"
     d=""
     id="path4247"
     inkscape:connector-curvature="0" />
  <path
     style="color:#000000;fill:#000000;fill-opacity:1;stroke:none;stroke-width:0.2;marker:none;visibility:visible;display:inline;overflow:visible;enable-background:accumulate"
     d=""
     id="path4249"
     inkscape:connector-curvature="0" />
  <path
     style="color:#000000;fill:#000000;fill-opacity:1;stroke:none;stroke-width:0.2;marker:none;visibility:visible;display:inline;overflow:visible;enable-background:accumulate"
     d=""
     id="path4251"
     inkscape:connector-curvature="0" />
  <path
     style="color:#000000;fill:#000000;fill-opacity:1;stroke:none;stroke-width:0.2;marker:none;visibility:visible;display:inline;overflow:visible;enable-background:accumulate"
     id="path4261"
     d="m 80.914015,42.248084 c 0.0639,0.27 0.12867,0.539744 0.21776,0.80264 0.0605,0.217824 0.11699,0.435496 0.17966,0.6528 0.0355,0.224664 0.14247,0.41984 0.25618,0.612528 0.0925,0.197744 0.1912,0.393288 0.25375,0.603112 0.0538,0.232728 0.11549,0.462416 0.15185,0.698784 0.0471,0.173592 0.0932,0.346312 0.12345,0.523776 0,0 -1.82489,0.96632 -1.82489,0.96632 l 0,0 c -0.0262,-0.179696 -0.0706,-0.354216 -0.12163,-0.528456 -0.0298,-0.228712 -0.0899,-0.448328 -0.144,-0.671672 -0.0516,-0.19536 -0.14527,-0.374736 -0.22517,-0.55936 -0.11904,-0.206832 -0.24302,-0.418368 -0.28508,-0.656584 -0.0587,-0.216216 -0.11903,-0.430056 -0.16799,-0.648728 -0.0865,-0.271208 -0.13894,-0.551416 -0.2443,-0.816536 0,0 1.83041,-0.978624 1.83041,-0.978624 z"
     inkscape:connector-curvature="0" />
  <path
     style="color:#000000;fill:#000000;fill-opacity:1;stroke:none;stroke-width:0.2;marker:none;visibility:visible;display:inline;overflow:visible;enable-background:accumulate"
     id="path4263"
     d="m 79.192615,40.711396 c 0.14454,0.240024 0.27541,0.48716 0.40964,0.73296 0.10124,0.207112 0.27836,0.354648 0.42894,0.522992 0.13933,0.142328 0.28866,0.27556 0.42162,0.423928 0.11552,0.151016 0.20789,0.315136 0.30013,0.48096 0.0745,0.18688 0.15555,0.37176 0.20845,0.566384 0.0582,0.163528 0.13921,0.320592 0.23169,0.467504 0,0 -1.79076,1.0406 -1.79076,1.0406 l 0,0 c -0.10063,-0.166448 -0.19351,-0.339528 -0.25883,-0.523088 -0.0438,-0.179464 -0.12224,-0.346024 -0.18557,-0.518712 -0.0845,-0.151488 -0.16707,-0.302896 -0.27518,-0.439368 -0.13659,-0.144704 -0.27859,-0.28428 -0.41636,-0.427864 -0.16581,-0.17788 -0.34104,-0.348696 -0.45071,-0.570176 -0.12372,-0.239416 -0.23997,-0.484256 -0.40839,-0.696616 0,0 1.78533,-1.059504 1.78533,-1.059504 z"
     inkscape:connector-curvature="0" />
  <path
     style="color:#000000;fill:#000000;fill-opacity:1;stroke:none;stroke-width:0.2;marker:none;visibility:visible;display:inline;overflow:visible;enable-background:accumulate"
     id="path4265"
     d="m 81.526215,46.34022 c -0.009,0.242592 -0.1013,0.466976 -0.1696,0.696296 -0.0418,0.201312 -0.15508,0.371336 -0.24414,0.552512 -0.10455,0.152848 -0.16244,0.329232 -0.23322,0.498856 -0.0282,0.09002 -0.0738,0.172712 -0.11362,0.257808 0,0 -1.8779,0.86968 -1.8779,0.86968 l 0,0 c 0.0294,-0.0888 0.0585,-0.17644 0.1172,-0.251224 0.028,-0.0945 0.0736,-0.17136 0.10818,-0.261224 0.0354,-0.09209 0.0396,-0.19696 0.10505,-0.277568 0.11665,-0.148568 0.18795,-0.334248 0.27697,-0.500352 0.0514,-0.218792 0.15048,-0.419368 0.1813,-0.64228 0,0 1.84978,-0.942504 1.84978,-0.942504 z"
     inkscape:connector-curvature="0" />
  <path
     style="color:#000000;fill:#000000;fill-opacity:1;stroke:none;stroke-width:0.2;marker:none;visibility:visible;display:inline;overflow:visible;enable-background:accumulate"
     id="path4267"
     d="m 81.643815,45.247556 c -0.0868,0.254432 -0.16032,0.512896 -0.23848,0.770232 -0.0498,0.253936 -0.13867,0.492208 -0.2506,0.724048 -0.0953,0.19532 -0.10564,0.412056 -0.12996,0.623856 -0.052,0.202632 -0.0728,0.41212 -0.12872,0.613504 -0.0402,0.210384 -0.12148,0.397192 -0.21933,0.585696 -0.091,0.178176 -0.18337,0.355568 -0.28014,0.530792 -0.0566,0.0708 -0.10249,0.147512 -0.14571,0.22684 0,0 -1.89742,0.830456 -1.89742,0.830456 l 0,0 c 0.0606,-0.07416 0.0891,-0.155504 0.14296,-0.234432 0.13757,-0.143488 0.18353,-0.338104 0.30153,-0.49596 0.0772,-0.190864 0.21291,-0.345456 0.22852,-0.558712 0.0195,-0.05984 0.0488,-0.11672 0.063,-0.178048 0.0316,-0.136696 0.0232,-0.284328 0.0768,-0.417152 0.0618,-0.216112 0.0235,-0.452968 0.11042,-0.665888 0.0939,-0.234608 0.24914,-0.443144 0.27597,-0.703008 0.0627,-0.251496 0.13032,-0.504672 0.2236,-0.746616 0,0 1.8676,-0.905608 1.8676,-0.905608 z"
     inkscape:connector-curvature="0" />
  <path
     style="color:#000000;fill:#000000;fill-opacity:1;stroke:none;stroke-width:0.2;marker:none;visibility:visible;display:inline;overflow:visible;enable-background:accumulate"
     id="path4271"
     d="m 80.916665,43.566444 c 0.0905,0.237248 0.24678,0.437752 0.34815,0.671168 0.0819,0.22072 0.16816,0.43576 0.21367,0.667544 0.0327,0.198808 0.0371,0.400576 0.041,0.601552 0,0 -1.83529,0.938864 -1.83529,0.938864 l 0,0 c -0.002,-0.190344 -0.004,-0.381288 -0.0286,-0.570392 -0.0355,-0.219368 -0.1154,-0.421088 -0.18654,-0.630536 -0.0944,-0.232272 -0.24844,-0.425816 -0.35872,-0.649784 0,0 1.80619,-1.028416 1.80619,-1.028416 z"
     inkscape:connector-curvature="0" />
  <path
     style="color:#000000;fill:#000000;fill-opacity:1;stroke:none;stroke-width:0.2;marker:none;visibility:visible;display:inline;overflow:visible;enable-background:accumulate"
     id="path4273"
     d="m 80.168185,35.47602 c -0.0144,0.266968 -0.0224,0.533712 0.0204,0.798152 0.0527,0.232352 0.0622,0.47076 0.0952,0.705776 0.054,0.245008 0.0887,0.492704 0.10825,0.74264 0.0159,0.248648 0.0165,0.49792 0.0172,0.746976 3e-5,0.0412 5e-5,0.08244 8e-5,0.123664 0,0 -1.83617,0.935552 -1.83617,0.935552 l 0,0 c 3e-5,-0.04112 7e-5,-0.08222 1e-4,-0.123328 -1.2e-4,-0.244896 4.3e-4,-0.48992 -0.0109,-0.734616 -0.0146,-0.243576 -0.0411,-0.48612 -0.0991,-0.72372 -0.0469,-0.23344 -0.0414,-0.474408 -0.095,-0.707568 -0.0462,-0.272896 -0.0409,-0.545016 -0.0499,-0.821024 0,0 1.84978,-0.942504 1.84978,-0.942504 z"
     inkscape:connector-curvature="0" />
  <path
     style="color:#000000;fill:#000000;fill-opacity:1;stroke:none;stroke-width:0.2;marker:none;visibility:visible;display:inline;overflow:visible;enable-background:accumulate"
     id="path4275"
     d="m 80.579175,48.60286 c -0.17156,0.178384 -0.30607,0.386488 -0.45771,0.581016 -0.31964,0.308592 -0.9013,0.879856 -1.09137,0.322752 -0.0653,-0.20176 0.0396,-0.3622 0.11105,-0.542776 0.0612,-0.190864 0.13704,-0.373784 0.17693,-0.570856 0.0454,-0.207704 0.13698,-0.398768 0.24197,-0.582008 0.0154,-0.03032 0.0322,-0.05992 0.0461,-0.09093 0.008,-0.01824 0.0561,-0.201928 0.0793,-0.212592 0.79833,-0.36628 0.82617,-0.58404 0.75355,-0.249208 -0.0363,0.178 -0.10615,0.348352 -0.18461,0.511648 -0.0764,0.184424 -0.17529,0.359248 -0.28003,0.528896 -0.10658,0.165224 -0.19812,0.339328 -0.29067,0.512576 -0.0598,0.107392 -0.0318,0.05264 -0.0842,0.164192 0,0 -0.77445,0.355552 -0.77445,0.355552 l 0,0 c 0.0476,-0.119552 0.0208,-0.06184 0.0798,-0.17332 0.10576,-0.166688 0.17992,-0.352944 0.28988,-0.517944 0.11434,-0.158328 0.20592,-0.338992 0.28368,-0.517264 0.0755,-0.15848 0.15603,-0.319408 0.18995,-0.492368 0.0774,-0.350336 8e-4,-0.08098 0.79941,-0.476576 0.0129,-0.0064 -0.0178,0.0228 -0.0238,0.03576 -0.0421,0.08914 -0.0549,0.189848 -0.10658,0.275088 -0.10159,0.17832 -0.20233,0.355136 -0.25444,0.556144 -0.0337,0.203336 -0.10501,0.389408 -0.16951,0.58328 -0.056,0.165616 -0.18172,0.310504 -0.13523,0.49128 0.008,0.02744 0.0192,0.08565 0.0475,0.107776 0.0222,0.01728 0.10768,-0.02448 0.0838,-0.0098 -0.76164,0.468744 -0.8404,0.536752 -0.56988,0.323288 0.16144,-0.18436 0.27823,-0.4038 0.4546,-0.575344 0,0 0.78505,-0.338304 0.78505,-0.338304 z"
     inkscape:connector-curvature="0" />
  <path
     style="color:#000000;fill:#000000;fill-opacity:1;stroke:none;stroke-width:0.2;marker:none;visibility:visible;display:inline;overflow:visible;enable-background:accumulate"
     id="path4277"
     d="m 80.344375,47.97834 c -0.14745,0.190272 -0.22693,0.409944 -0.30988,0.632176 -0.0599,0.133944 -0.0971,0.27456 -0.12605,0.417792 0,0 -0.76433,0.371968 -0.76433,0.371968 l 0,0 c 0.0251,-0.14836 0.0565,-0.295368 0.1195,-0.43316 0.0921,-0.216232 0.13964,-0.454392 0.30102,-0.636 0,0 0.77974,-0.352776 0.77974,-0.352776 z"
     inkscape:connector-curvature="0" />
  <path
     style="color:#000000;fill:#000000;fill-opacity:1;stroke:none;stroke-width:0.2;marker:none;visibility:visible;display:inline;overflow:visible;enable-background:accumulate"
     id="path4279"
     d="m 79.838435,48.60286 c -0.0898,0.130672 -0.0462,0.06104 -0.1296,0.209824 0,0 -0.77269,0.347608 -0.77269,0.347608 l 0,0 c 0.0766,-0.154832 0.037,-0.08202 0.11724,-0.219128 0,0 0.78505,-0.338304 0.78505,-0.338304 z"
     inkscape:connector-curvature="0" />
</svg>
